<svg height="480pt" viewBox="0 0 480 480.00635" width="480pt" xmlns="http://www.w3.org/2000/svg"><g fill="#012c3d"><path d="m223.695312 88c0 13.253906-10.742187 24-24 24-13.253906 0-24-10.746094-24-24s10.746094-24 24-24c13.257813 0 24 10.746094 24 24zm0 0"/><path d="m287.695312 208c0 17.671875-14.324218 32-32 32-17.671874 0-32-14.328125-32-32s14.328126-32 32-32c17.675782 0 32 14.328125 32 32zm0 0"/><path d="m143.695312 176h-16v-16h-16v16h-16v16h16v16h16v-16h16zm0 0"/></g><path d="m479.695312 208c0 78.785156-44.511718 150.808594-114.976562 186.039062-70.46875 35.234376-154.792969 27.632813-217.820312-19.640624-2.757813-2.066407-3.878907-5.660157-2.789063-8.929688 1.085937-3.265625 4.144531-5.46875 7.585937-5.46875 105.980469-.140625 191.859376-86.019531 192-192 .238282-60.488281-28.265624-117.496094-76.796874-153.601562-2.757813-2.066407-3.878907-5.660157-2.789063-8.929688 1.085937-3.265625 4.144531-5.46875 7.585937-5.46875 114.832032.109375 207.890626 93.171875 208 208zm0 0" fill="#ffcc5c"/><path d="m438.738281 413.679688c-1.601562 2.929687-4.855469 4.554687-8.160156 4.082031-.515625-.0625-1.023437-.167969-1.519531-.320313-22.207032-4.238281-44.996094 3.582032-59.921875 20.558594-1.984375 2.484375-5.238281 3.578125-8.320313 2.800781-7.421875-2.007812-15.160156-2.578125-22.800781-1.679687-16.777344 1.570312-32.035156 10.394531-41.757813 24.160156-2.265624 3.375-6.6875 4.539062-10.320312 2.71875-6.546875-3.296875-13.5625-5.5625-20.800781-6.71875-21.011719-3.945312-42.609375 2.832031-57.601563 18.078125-1.511718 1.675781-3.660156 2.636719-5.917968 2.640625-.484376.027344-.972657-.027344-1.441407-.160156-2.675781-.5-4.925781-2.300782-6-4.800782-8.757812-19.519531-26.726562-33.339843-47.839843-36.800781-7.171876-1.363281-14.519532-1.582031-21.757813-.636719-4.070313.574219-7.898437-2.070312-8.800781-6.082031-4.410156-16.328125-15.796875-29.882812-31.121094-37.039062-6.84375-3.457031-14.28125-5.574219-21.917969-6.242188-3.160156-.3125-5.847656-2.4375-6.882812-5.4375-8.066407-21.03125-26.71875-36.179687-48.957031-39.761719-.355469-.03125-.707032-.113281-1.042969-.238281-3.070313-1.011719-5.304688-3.679687-5.7578128-6.878906-.4921872-3.121094.9648438-6.226563 3.6796878-7.84375 44.714844-23.410156 93.371094-38.355469 143.519531-44.078125 2.492187-.285156 4.972656.621094 6.691406 2.449219s2.46875 4.359375 2.027344 6.832031l-1.117187 6.878906c-3.800782 20.292969 4.304687 40.972656 20.878906 53.28125 2.480468-26.160156 8.320312-38.5625 18.640625-40.160156 3.085937-.4375 6.21875.429688 8.640625 2.398438 4.050781 3.835937 7.027344 8.660156 8.636718 14 5.308594-1.222657 10.8125-1.332032 16.160157-.320313 4.417969.832031 8.664062 2.402344 12.5625 4.640625 4.800781-6.078125 12.398437-13.039062 20.238281-9.28125 3.351562 1.742188 5.925781 4.6875 7.199219 8.242188 2.800781 7.199218 2.480469 18.640624-1.117188 36.480468 19.667969-6 34.257813-22.605468 37.679688-42.882812.320312-2.078125.480469-4.238282.640625-6.480469.195312-2.65625 1.6875-5.046875 3.988281-6.390625 2.304687-1.34375 5.121094-1.464844 7.53125-.328125 27.761719 13.664063 53.832031 30.527344 77.679687 50.242187 3.757813 2.957032 7.359376 6 10.640626 8.878907 11.648437 9.988281 22.632812 20.734375 32.878906 32.160156 2.167968 2.519531 2.550781 6.121094.960937 9.039063zm0 0"/></svg>