<?xml version="1.0" encoding="iso-8859-1"?>
<!-- Generator: Adobe Illustrator 19.0.0, SVG Export Plug-In . SVG Version: 6.00 Build 0)  -->
<svg version="1.1" id="Capa_1" xmlns="http://www.w3.org/2000/svg" xmlns:xlink="http://www.w3.org/1999/xlink" x="0px" y="0px"
	 viewBox="0 0 512 512" style="enable-background:new 0 0 512 512;" xml:space="preserve">
<path style="fill:#ED4596;" d="M127.149,422.909c0,0,17.234,52.64,41.577,68.071c14.823,9.396,43.041,13.427,74.31,13.427
	c48.552,0,75.041-6.335,87.912-28.85l28.299-52.65"/>
<path style="fill:#E65091;" d="M189.155,391.396c-38.427,4.768-64.737,14.486-64.737,25.702c0,11.206,26.31,20.924,64.737,25.692
	c11.216,1.397,23.465,2.369,36.392,2.834c5.709,0.213,11.55,0.314,17.493,0.314c19.416,0,37.739-1.134,53.915-3.148
	c38.407-4.768,64.706-14.486,64.706-25.692c0-11.206-26.3-20.924-64.706-25.702"/>
<g>
	<path style="fill:#F9D366;" d="M403.005,80.831l15.987-3.241c7.548-1.531,7.548-12.317,0-13.847l-15.987-3.241
		c-15.754-3.194-28.067-15.506-31.261-31.261l-3.241-15.987c-1.531-7.548-12.317-7.548-13.847,0l-3.241,15.987
		c-3.194,15.754-15.506,28.067-31.261,31.261l-15.987,3.241c-7.548,1.531-7.548,12.317,0,13.847l15.987,3.241
		c15.754,3.194,28.067,15.506,31.261,31.261l3.241,15.987c1.531,7.548,12.317,7.548,13.847,0l3.241-15.987
		C374.938,96.338,387.25,84.025,403.005,80.831z"/>
	<path style="fill:#F9D366;" d="M296.955,211.236v231.554c-16.177,2.014-34.499,3.148-53.915,3.148
		c-5.942,0-11.783-0.101-17.493-0.314c-12.927-0.466-25.176-1.438-36.392-2.834V211.236L296.955,211.236L296.955,211.236z"/>
</g>
<path style="fill:#DD8833;" d="M225.547,211.236v234.389c-12.927-0.466-25.176-1.438-36.392-2.834V211.236L225.547,211.236
	L225.547,211.236z"/>
<path style="fill:#EDE6F5;" d="M302.471,259.837c-3.118-1.043-5.426-3.705-6.297-6.874c-1.792-6.499-6.782-20.702-16.156-20.702
	c-27.049,0-29.691,56.689-18.89,110.675c4.636,23.182-3.381,44.541-20.246,44.541c-10.123,0-24.974-12.826-18.221-45.888
	c6.742-33.072,14.172-80.316-4.393-86.046c-12.016-3.715-17.665,6.58-19.052,19.618c-0.759,7.086-0.253,14.992,1.174,21.886
	c4.049,19.568-0.952,38.103-11.237,42.608c-15.002,6.57-34.165-7.592-24.295-39.48s-9.87-40.998-9.87-82.746
	c0-34.692,29.863-41.616,62.611-37.739c12.765,1.508,25.733,0.294,37.88-3.948c17.128-5.973,42.476-11.216,56.659,2.966
	C333.012,199.585,321.998,266.397,302.471,259.837z"/>
<path style="fill:#CEC1E8;" d="M199.216,275.163c-0.759,7.086-0.253,14.992,1.174,21.886c4.049,19.568-0.952,38.103-11.237,42.608
	c-15.002,6.57-34.165-7.592-24.295-39.48s-9.87-40.998-9.87-82.746c0-34.692,29.863-41.616,62.611-37.739
	C192.757,179.207,176.439,241.818,199.216,275.163z"/>
<path style="fill:#ED4596;" d="M212.088,116.679c0,0.866,0.015,1.728,0.047,2.586c1.414,39.079,60.421,39.079,61.837,0
	c0.031-0.858,0.047-1.721,0.047-2.586c0-24.247-12.282-45.625-30.964-58.252C224.372,71.055,212.088,92.432,212.088,116.679z"/>
<path d="M388.202,168.664c-4.194,0-7.592,3.399-7.592,7.592v19.739c0,4.193,3.398,7.592,7.592,7.592
	c4.194,0,7.592-3.399,7.592-7.592v-19.739C395.794,172.063,392.396,168.664,388.202,168.664z"/>
<path d="M388.202,221.808c-4.194,0-7.592,3.399-7.592,7.592v19.739c0,4.193,3.398,7.592,7.592,7.592
	c4.194,0,7.592-3.399,7.592-7.592V229.4C395.794,225.207,392.396,221.808,388.202,221.808z"/>
<path d="M424.643,205.106h-19.739c-4.194,0-7.592,3.399-7.592,7.592s3.398,7.592,7.592,7.592h19.739
	c4.194,0,7.592-3.399,7.592-7.592S428.837,205.106,424.643,205.106z"/>
<path d="M371.499,205.106H351.76c-4.194,0-7.592,3.399-7.592,7.592s3.398,7.592,7.592,7.592h19.739c4.194,0,7.592-3.399,7.592-7.592
	S375.693,205.106,371.499,205.106z"/>
<path d="M123.788,133.038c4.194,0,7.592-3.399,7.592-7.592v-19.739c0-4.193-3.398-7.592-7.592-7.592
	c-4.194,0-7.592,3.399-7.592,7.592v19.739C116.196,129.639,119.595,133.038,123.788,133.038z"/>
<path d="M123.788,186.181c4.194,0,7.592-3.399,7.592-7.592V158.85c0-4.193-3.398-7.592-7.592-7.592
	c-4.194,0-7.592,3.399-7.592,7.592v19.739C116.196,182.783,119.595,186.181,123.788,186.181z"/>
<path d="M140.49,149.74h19.739c4.194,0,7.592-3.399,7.592-7.592s-3.398-7.592-7.592-7.592H140.49c-4.194,0-7.592,3.399-7.592,7.592
	S136.297,149.74,140.49,149.74z"/>
<path d="M107.086,134.555H87.347c-4.194,0-7.592,3.399-7.592,7.592s3.398,7.592,7.592,7.592h19.739c4.194,0,7.592-3.399,7.592-7.592
	S111.28,134.555,107.086,134.555z"/>
<path d="M404.513,88.272L420.5,85.03c6.915-1.402,11.745-7.308,11.745-14.364c0-7.056-4.83-12.963-11.745-14.365l-15.987-3.241
	c-12.794-2.594-22.734-12.535-25.329-25.329l-3.241-15.986C374.541,4.83,368.634,0,361.578,0s-12.963,4.83-14.364,11.745
	l-3.241,15.986c-2.595,12.793-12.535,22.735-25.329,25.329l-15.987,3.241c-6.915,1.402-11.745,7.31-11.745,14.365
	c0,7.056,4.83,12.963,11.745,14.364l15.987,3.241c12.793,2.594,22.734,12.535,25.329,25.329l3.241,15.986
	c1.402,6.915,7.309,11.745,14.364,11.745c7.057,0,12.964-4.83,14.365-11.745l3.241-15.986
	C381.779,100.808,391.72,90.865,404.513,88.272z M364.302,110.584l-2.724,13.431l-2.723-13.431
	c-3.809-18.785-18.409-33.385-37.193-37.194l-13.432-2.725l13.432-2.722c18.785-3.809,33.385-18.409,37.193-37.194l2.724-13.431
	l2.723,13.431c3.809,18.785,18.409,33.385,37.193,37.194l13.431,2.724l-13.431,2.723C382.711,77.199,368.112,91.799,364.302,110.584
	z"/>
<path d="M181.562,361.928v59.096c0,4.193,3.398,7.592,7.592,7.592s7.592-3.399,7.592-7.592v-59.096c0-4.193-3.398-7.592-7.592-7.592
	S181.562,357.735,181.562,361.928z"/>
<path d="M289.363,282.199v138.826c0,4.193,3.398,7.592,7.592,7.592c4.194,0,7.592-3.399,7.592-7.592V282.199
	c0-4.193-3.398-7.592-7.592-7.592C292.762,274.607,289.363,278.006,289.363,282.199z"/>
<path d="M147.395,217.428c0,20.052,4.38,33.35,7.9,44.036c4.07,12.355,7.01,21.283,2.308,36.47
	c-7.404,23.925,0.642,36.633,6.097,42.079c7.199,7.186,18.076,9.891,27.708,6.892c7.729-2.407,13.504-9.724,16.261-20.602
	c2.316-9.137,2.37-20.074,0.152-30.794c-2.753-13.306-1.205-28.066,3.38-32.232c0.566-0.514,1.618-1.473,4.828-0.481
	c1.611,0.498,6.826,3.796,6.336,25.347c-0.39,17.065-4.265,37.81-7.147,51.927c-4.987,24.436,0.937,38.101,6.784,45.262
	c5.053,6.189,11.933,9.738,18.875,9.738c7.944,0,14.895-3.359,20.104-9.714c8.24-10.05,11.076-26.465,7.587-43.909
	c-8.83-44.147-7.413-84.229,3.444-97.473c2.306-2.814,4.851-4.124,8.007-4.124c1.878,0,5.984,4.808,8.83,15.132
	c0.001,0,0.001,0.001,0.001,0.001c1.58,5.724,5.768,10.229,11.204,12.056c3.796,1.273,13.483,2.853,21.436-9.984
	c11.765-18.993,14.717-65.014-3.985-83.715c-13.231-13.231-35.548-14.878-64.53-4.763c-10.724,3.741-22.651,4.98-34.487,3.578
	c-0.014-0.002-0.027-0.003-0.04-0.004c-0.029-0.003-0.059-0.006-0.088-0.009c-26.021-3.058-45.349,0.836-57.442,11.583
	C151.945,191.699,147.395,203.038,147.395,217.428z M171.005,195.076c8.469-7.524,23.914-10.261,44.681-7.948
	c29.904,12.681,57.312,12.838,58.478,12.838c4.19,0,7.582-3.393,7.587-7.583c0.005-4.189-3.389-7.591-7.577-7.601
	c-0.131,0-6.816-0.055-16.914-1.629c0.24-0.081,0.482-0.156,0.721-0.24c13.184-4.6,37.057-10.569,48.789,1.163
	c12.885,12.884,10.476,51,1.814,64.982c-1.411,2.278-3,3.814-3.694,3.586c-0.623-0.21-1.171-0.876-1.399-1.699
	c-4.674-16.946-13.009-26.278-23.469-26.278c-7.728,0-14.558,3.348-19.75,9.682c-7.622,9.297-11.849,25.011-12.564,46.706
	c-0.611,18.557,1.509,41.062,5.972,63.371c2.529,12.643,0.786,24.929-4.44,31.303c-2.294,2.797-5.029,4.157-8.363,4.157
	c-1.798,0-4.611-1.092-7.114-4.158c-3.084-3.778-7.663-13.04-3.668-32.623c8.72-42.727,14.401-87.404-9.583-94.818
	c-2.368-0.732-4.687-1.094-6.916-1.094c-4.745,0-9.081,1.641-12.606,4.843c-11.741,10.668-10.578,34.278-8.039,46.547
	c3.732,18.036-1.175,32.303-6.059,33.823c-4.315,1.343-9.207,0.11-12.465-3.141c-3.033-3.027-7.366-10.539-2.319-26.843
	c6.136-19.821,1.993-32.396-2.392-45.71c-3.346-10.158-7.138-21.671-7.138-39.286C162.58,207.425,165.335,200.114,171.005,195.076z"
	/>
<path d="M243.054,156.168c18.477,0,37.635-12.581,38.506-36.631c0.033-0.949,0.052-1.9,0.052-2.858
	c0-25.895-12.825-50.023-34.306-64.542c-2.568-1.736-5.935-1.736-8.503,0c-21.481,14.519-34.305,38.648-34.305,64.542
	c0,0.957,0.018,1.909,0.052,2.862C205.419,143.586,224.578,156.168,243.054,156.168z M243.054,67.858
	c14.724,11.859,23.373,29.747,23.373,48.822c0,0.775-0.014,1.548-0.042,2.312c-0.55,15.192-12.114,21.992-23.332,21.992
	c-11.216,0-22.781-6.8-23.331-21.988c-0.027-0.768-0.042-1.541-0.042-2.316C219.682,97.603,228.331,79.716,243.054,67.858z"/>
<path d="M322.639,387.944c-4.101-0.872-8.134,1.745-9.005,5.847c-0.872,4.101,1.746,8.133,5.847,9.005
	c26.983,5.737,34.056,12.624,34.576,14.302c-0.05,0.164-0.159,0.367-0.324,0.601c-0.198,0.211-0.386,0.434-0.562,0.67
	c-3.482,3.637-17.741,11.993-57.155,16.886c-16.463,2.05-34.288,3.09-52.978,3.09c-5.931,0-11.721-0.104-17.219-0.309
	c-12.506-0.451-24.527-1.386-35.73-2.782c-36.805-4.566-51.687-12.153-56.34-16.1c-0.454-0.8-1.045-1.49-1.727-2.061
	c0.515-1.656,7.443-8.443,33.868-14.148c4.099-0.886,6.703-4.925,5.819-9.024c-0.885-4.099-4.927-6.702-9.024-5.819
	c-30.431,6.571-45.86,16.325-45.86,28.994c0,3.145,0.993,6.583,3.751,10.064c3.466,9.97,20.203,55.09,44.086,70.23
	C183.706,509.466,217.794,512,243.036,512c32.113,0,52.268-2.738,67.393-9.154c3.86-1.637,5.663-6.094,4.025-9.954
	c-1.637-3.861-6.095-5.664-9.954-4.025c-12.958,5.497-31.914,7.949-61.464,7.949c-32.363,0-57.967-4.464-70.246-12.248
	c-12.109-7.676-23.208-27.603-30.584-44.096c10.678,3.873,25.535,7.313,46.008,9.853c11.639,1.45,24.107,2.421,37.048,2.887
	c5.674,0.212,11.656,0.319,17.775,0.319c19.316,0,37.772-1.078,54.852-3.206c18.43-2.288,32.31-5.304,42.685-8.711l-16.313,30.35
	c-1.985,3.693-0.6,8.297,3.094,10.282c1.144,0.614,2.375,0.907,3.588,0.907c2.706,0,5.325-1.45,6.694-4l28.124-52.324
	c2.56-3.367,3.492-6.686,3.492-9.73C369.255,404.33,353.57,394.521,322.639,387.944z"/>
<g>
</g>
<g>
</g>
<g>
</g>
<g>
</g>
<g>
</g>
<g>
</g>
<g>
</g>
<g>
</g>
<g>
</g>
<g>
</g>
<g>
</g>
<g>
</g>
<g>
</g>
<g>
</g>
<g>
</g>
</svg>
