<?xml version="1.0" encoding="iso-8859-1"?>
<!-- Generator: Adobe Illustrator 19.0.0, SVG Export Plug-In . SVG Version: 6.00 Build 0)  -->
<svg version="1.1" id="Capa_1" xmlns="http://www.w3.org/2000/svg" xmlns:xlink="http://www.w3.org/1999/xlink" x="0px" y="0px"
	 viewBox="0 0 512 512" style="enable-background:new 0 0 512 512;" xml:space="preserve">
<g>
	<path style="fill:#4E4F75;" d="M129.362,429.745l-29.496,52.581c-6.161,10.982,3.919,23.968,16.087,20.724l97.405-25.975
		L129.362,429.745z"/>
	<path style="fill:#4E4F75;" d="M382.632,429.745l29.497,52.581c6.161,10.982-3.919,23.968-16.087,20.724l-97.405-25.975
		L382.632,429.745z"/>
	<path style="fill:#4E4F75;" d="M407.028,231.373c17.259,27.448,27.239,59.927,27.239,94.745c0,98.464-79.815,178.27-178.27,178.27
		S77.728,424.582,77.728,326.118c0-34.818,9.98-67.306,27.248-94.755"/>
</g>
<path style="fill:#32314C;" d="M254.685,504.375c-97.858-0.7-176.956-80.235-176.956-178.256c0-34.819,9.979-67.313,27.246-94.762
	h65.425c-9.786,27.449-15.44,59.943-15.44,94.762C154.959,423.805,199.492,503.137,254.685,504.375z"/>
<ellipse style="fill:#4E4F75;" cx="256.001" cy="205.278" rx="169.485" ry="57.426"/>
<path style="fill:#32314C;" d="M228.348,182.189c70.382-5.414,87.301-4.738,125.303,2.569c6.862,1.472,12.707,2.975,17.651,4.455
	c6.431,1.935,6.431,11.05,0,12.984c-4.944,1.464-10.789,2.983-17.651,4.455c-24.31,5.204-54.506,8.309-86.076,8.927
	c-3.837,0.073-7.708,0.114-11.577,0.114c-12.058,0-24.001-0.365-35.578-1.081c-8.081-0.488-15.976-1.154-23.619-1.975
	c-13.83-1.48-26.813-3.496-38.449-5.984c-4.374-0.935-8.333-1.886-11.911-2.837v-0.008c-2.024-0.545-3.943-1.081-5.74-1.61
	c-6.423-1.935-6.423-11.05,0-12.984c0.122-0.041,0.244-0.065,0.365-0.106"/>
<path style="fill:#CF8BFC;" d="M277.641,187.303c0,10.732-3.78,20.578-10.065,28.277c-3.837,0.073-7.708,0.114-11.577,0.114
	c-35.7,0-70.376-3.212-97.646-9.041c-4.382-0.935-8.341-1.886-11.91-2.837c0,0,0-0.008-0.008-0.008
	c-2.764-4.374-4.642-9.35-5.374-14.7c-0.236-1.675-0.358-3.382-0.358-5.122c0-20.496,16.61-37.107,37.099-37.107
	c0.821,0,1.642,0.041,2.447,0.089c-1.496-3.529-2.318-7.406-2.318-11.488c0-16.276,13.196-29.48,29.48-29.48
	s29.48,13.204,29.48,29.48c0,2.48-0.309,4.887-0.886,7.187C259.266,144.276,277.641,163.635,277.641,187.303z"/>
<g>
	<path style="fill:#9966CC;" d="M190.94,135.478c0-14.045,9.825-25.788,22.975-28.75c-2.093-0.472-4.269-0.729-6.504-0.729
		c-16.281,0-29.479,13.199-29.479,29.479c0,16.282,13.199,29.479,29.479,29.479c2.236,0,4.411-0.257,6.504-0.729
		C200.764,161.267,190.94,149.524,190.94,135.478z"/>
	<path style="fill:#9966CC;" d="M211.012,187.303c0,10.31,3.512,19.781,9.407,27.31c-8.081-0.488-15.976-1.154-23.619-1.975
		c-5-7.187-7.935-15.919-7.935-25.334c0-24.513,19.87-44.391,44.391-44.391c3.821,0,7.528,0.488,11.073,1.399
		C225.175,149.228,211.012,166.611,211.012,187.303z"/>
</g>
<circle style="fill:#CF8BFC;" cx="197.043" cy="38.443" r="30.829"/>
<path style="fill:#9966CC;" d="M187.195,38.443c0-13.343,8.477-24.704,20.34-28.996c-3.275-1.185-6.806-1.833-10.489-1.833
	c-17.027,0-30.829,13.803-30.829,30.829s13.803,30.829,30.829,30.829c3.684,0,7.214-0.649,10.489-1.833
	C195.673,63.147,187.195,51.786,187.195,38.443z"/>
<circle style="fill:#CF8BFC;" cx="293.754" cy="85.202" r="26.029"/>
<path style="fill:#9966CC;" d="M285.441,85.202c0-11.266,7.158-20.857,17.173-24.481c-2.765-1-5.747-1.548-8.856-1.548
	c-14.375,0-26.029,11.654-26.029,26.029s11.654,26.029,26.029,26.029c3.11,0,6.092-0.547,8.856-1.548
	C292.598,106.059,285.441,96.467,285.441,85.202z"/>
<path d="M397.028,72.329c4.206,0,7.613-3.409,7.613-7.613V44.921c0-4.205-3.408-7.613-7.613-7.613s-7.613,3.409-7.613,7.613v19.794
	C389.415,68.921,392.824,72.329,397.028,72.329z"/>
<path d="M397.028,125.621c4.206,0,7.613-3.409,7.613-7.613V98.213c0-4.205-3.408-7.613-7.613-7.613s-7.613,3.409-7.613,7.613v19.794
	C389.415,122.212,392.824,125.621,397.028,125.621z"/>
<path d="M413.777,89.078h19.794c4.206,0,7.613-3.409,7.613-7.613c0-4.205-3.408-7.613-7.613-7.613h-19.794
	c-4.206,0-7.613,3.409-7.613,7.613C406.163,85.669,409.572,89.078,413.777,89.078z"/>
<path d="M360.486,89.078h19.794c4.206,0,7.613-3.409,7.613-7.613c0-4.205-3.408-7.613-7.613-7.613h-19.794
	c-4.206,0-7.613,3.409-7.613,7.613C352.872,85.669,356.281,89.078,360.486,89.078z"/>
<path d="M128.269,195.706c0,6.399,4.113,11.938,10.283,13.797c1.694,0.498,3.569,1.025,5.577,1.568
	c0.117,0.037,0.234,0.071,0.354,0.104c3.826,1.017,7.957,2.002,12.276,2.925c11.872,2.539,25.072,4.594,39.226,6.109
	c7.87,0.846,15.935,1.521,23.963,2.005c11.772,0.727,23.9,1.096,36.048,1.096c3.774,0,7.718-0.039,11.727-0.116
	c32.425-0.634,62.689-3.779,87.524-9.094c6.446-1.382,12.574-2.93,18.249-4.609c6.126-1.843,10.243-7.382,10.243-13.783
	c0-6.401-4.116-11.939-10.254-13.786c-5.432-1.626-11.568-3.175-18.238-4.606c-4.106-0.877-8.158,1.737-9.04,5.848
	c-0.882,4.111,1.736,8.16,5.848,9.041c5.155,1.105,9.949,2.281,14.289,3.5c-4.486,1.256-9.279,2.432-14.286,3.506
	c-20.053,4.292-44.82,7.178-70.876,8.318c2.663-6.365,4.078-13.243,4.078-20.221c0-24.671-17.353-45.728-40.755-51.058
	c0.005-0.256,0.008-0.513,0.008-0.768c0-20.452-16.644-37.092-37.102-37.092c-20.452,0-37.092,16.64-37.092,37.092
	c0,1.472,0.084,2.93,0.252,4.37c-21.227,3.468-37.48,21.94-37.48,44.137c0,0.312,0.026,0.617,0.032,0.927
	C130.098,187.575,128.269,191.445,128.269,195.706z M177.802,154.491c0.661,0,1.374,0.039,1.985,0.075
	c2.631,0.169,5.161-1.052,6.684-3.206c1.522-2.155,1.82-4.944,0.788-7.371c-1.137-2.676-1.714-5.54-1.714-8.512
	c0-12.056,9.808-21.865,21.865-21.865c12.056,0,21.865,9.8,21.874,21.849c-10.554,0.813-20.698,4.839-28.919,11.557
	c-3.255,2.661-3.739,7.457-1.078,10.713c1.505,1.841,3.694,2.796,5.901,2.796c1.693,0,3.399-0.562,4.813-1.719
	c6.535-5.341,14.791-8.281,23.25-8.281c0.712,0,1.398-0.105,2.052-0.287c0.06,0.005,0.119,0.018,0.18,0.022
	c19.374,1.341,34.55,17.612,34.55,37.042c0,7.393-2.229,14.632-6.324,20.722c-2.625,0.035-5.21,0.054-7.712,0.054
	c-11.836,0-23.648-0.359-35.119-1.068c-7.803-0.471-15.63-1.126-23.269-1.946c-13.636-1.459-26.308-3.43-37.665-5.858
	c-2.94-0.628-5.778-1.285-8.477-1.959c-1.452-2.871-2.413-5.942-2.861-9.196c-0.004-0.03-0.007-0.062-0.011-0.092
	c-0.182-1.283-0.276-2.619-0.276-3.974C148.317,167.723,161.545,154.491,177.802,154.491z"/>
<path d="M417.157,233.454c12.508-10.098,15.939-20.18,15.939-28.18c0-12.056-7.908-29.55-45.58-44.437
	c-26.743-10.568-63.5-17.61-103.499-19.829c-4.173-0.237-7.79,2.981-8.023,7.18c-0.232,4.199,2.982,7.791,7.18,8.024
	c83.198,4.616,134.695,29.061,134.695,49.063c0,11.475-16.624,23.958-44.47,33.393c-31.245,10.586-72.938,16.416-117.398,16.416
	s-86.155-5.83-117.398-16.416c-27.846-9.435-44.471-21.918-44.471-33.393c0-9.66,11.946-20.223,32.774-28.982
	c3.876-1.629,5.697-6.093,4.068-9.97c-1.63-3.877-6.097-5.696-9.97-4.067c-34.794,14.632-42.099,31.469-42.099,43.018
	c0,8,3.43,18.079,15.936,28.178c-16.193,28.098-24.728,59.979-24.728,92.666c0,44.797,15.93,85.944,42.422,118.074l-19.306,34.41
	c-4.376,7.794-3.69,17.025,1.793,24.089c4.251,5.479,10.481,8.488,17.093,8.488c1.914,0,3.858-0.253,5.797-0.769l59.496-15.865
	C201.295,505.734,227.927,512,255.999,512c27.816,0,54.575-6.155,78.721-17.421l59.363,15.83c1.939,0.517,3.883,0.768,5.796,0.768
	c6.613,0,12.842-3.008,17.095-8.484c5.482-7.063,6.172-16.293,1.799-24.09l-19.233-34.28c11.215-13.634,20.609-29.01,27.73-45.846
	c1.638-3.873-0.174-8.339-4.045-9.978c-3.872-1.636-8.34,0.174-9.978,4.046C386.468,455.862,324.744,496.773,256,496.773
	c-94.1,0-170.657-76.557-170.657-170.655c0-29.696,7.679-58.658,22.239-84.247c6.999,3.864,15.587,7.644,26.137,11.218
	c32.776,11.104,76.205,17.221,122.285,17.221s89.508-6.116,122.284-17.221c10.548-3.574,19.134-7.354,26.133-11.216
	c14.557,25.594,22.235,54.555,22.235,84.245c0,11.585-1.166,23.159-3.467,34.404c-0.843,4.119,1.813,8.142,5.933,8.985
	c0.515,0.106,1.028,0.156,1.534,0.156c3.541,0,6.713-2.484,7.451-6.089c2.506-12.246,3.776-24.849,3.776-37.456
	C441.88,293.438,433.346,261.558,417.157,233.454z M388.792,456.29l16.698,29.762c1.994,3.555,0.085,6.49-0.547,7.304
	c-0.631,0.815-3.007,3.388-6.939,2.34l-43.79-11.677C366.773,476.212,378.388,466.91,388.792,456.29z M157.956,483.972
	l-43.967,11.725c-3.936,1.05-6.303-1.527-6.936-2.341c-0.631-0.815-2.539-3.748-0.543-7.302l16.784-29.916
	C133.676,466.731,145.309,476.089,157.956,483.972z"/>
<path d="M197.045,76.885c21.198,0,38.443-17.245,38.443-38.443S218.243,0,197.045,0s-38.443,17.245-38.443,38.443
	S175.847,76.885,197.045,76.885z M197.045,15.227c12.801,0,23.216,10.414,23.216,23.216s-10.415,23.216-23.216,23.216
	c-12.801,0-23.216-10.414-23.216-23.216S184.244,15.227,197.045,15.227z"/>
<path d="M293.758,118.844c18.549,0,33.642-15.092,33.642-33.642s-15.092-33.642-33.642-33.642s-33.643,15.092-33.643,33.642
	S275.206,118.844,293.758,118.844z M293.758,66.787c10.154,0,18.415,8.261,18.415,18.415s-8.261,18.415-18.415,18.415
	s-18.416-8.261-18.416-18.415S283.603,66.787,293.758,66.787z"/>
<g>
</g>
<g>
</g>
<g>
</g>
<g>
</g>
<g>
</g>
<g>
</g>
<g>
</g>
<g>
</g>
<g>
</g>
<g>
</g>
<g>
</g>
<g>
</g>
<g>
</g>
<g>
</g>
<g>
</g>
</svg>
