<?xml version="1.0" encoding="iso-8859-1"?>
<!-- Generator: Adobe Illustrator 19.0.0, SVG Export Plug-In . SVG Version: 6.00 Build 0)  -->
<svg version="1.1" id="Capa_1" xmlns="http://www.w3.org/2000/svg" xmlns:xlink="http://www.w3.org/1999/xlink" x="0px" y="0px"
	 viewBox="0 0 512.002 512.002" style="enable-background:new 0 0 512.002 512.002;" xml:space="preserve">
<polygon style="fill:#81DBBA;" points="344.366,93.985 293.447,498.131 260.109,494.455 226.759,490.778 222.659,80.566 288.09,7.6 
	"/>
<polygon style="fill:#56AB8F;" points="278.479,73.801 260.109,494.455 226.759,490.778 222.659,80.566 "/>
<polygon style="fill:#BDF2DF;" points="288.091,7.595 278.483,73.802 344.367,93.981 "/>
<polygon style="fill:#ED3561;" points="243.511,120.962 238.862,455.809 201.179,458.807 163.485,461.805 105.943,131.911 
	169.541,61.404 "/>
<polygon style="fill:#CE2454;" points="201.179,458.807 163.485,461.805 105.943,131.911 185.482,162.717 "/>
<polygon style="fill:#F7638D;" points="169.541,61.404 185.479,162.72 243.511,120.962 "/>
<polygon style="fill:#CF8BFC;" points="448.951,194.425 356.945,503.914 286.278,503.914 286.035,505.686 276.566,503.914 
	269.153,502.525 286.885,284.062 289.488,251.939 296.476,165.888 392.877,72.404 "/>
<polygon style="fill:#9966CC;" points="389.322,203.712 310.927,510.344 269.153,502.525 296.476,165.888 "/>
<polyline style="fill:#DFB3FC;" points="448.951,194.426 389.322,203.713 392.877,72.404 "/>
<polygon style="fill:#CF8BFC;" points="188.682,503.914 113.224,503.914 12.033,225.81 54.75,115.95 144.132,192.785 "/>
<polygon style="fill:#9966CC;" points="149.591,495.355 149.591,495.366 113.406,504.409 12.033,225.81 54.75,115.95 81.607,223.39 
	"/>
<polygon style="fill:#DFB3FC;" points="144.132,192.785 81.607,223.39 12.033,225.81 54.75,115.95 "/>
<polygon style="fill:#BD8BFC;" points="81.607,223.39 12.033,225.81 54.75,115.95 "/>
<polygon style="fill:#F9D366;" points="312.376,311.75 286.278,503.914 176.55,503.914 150.452,311.75 231.409,223.805 "/>
<polygon style="fill:#DD8833;" points="256.99,325.026 239.126,503.914 176.55,503.914 150.452,311.75 "/>
<polyline style="fill:#FFDB82;" points="312.376,311.75 256.99,325.027 231.409,223.805 "/>
<path d="M217.584,86.221c1.695,1.522,3.887,2.132,5.983,1.879l0.001,0.006l46.935-5.687l-6.509,148.985
	c-0.183,4.191,3.066,7.736,7.257,7.919c0.112,0.005,0.225,0.007,0.337,0.007c4.042,0,7.405-3.186,7.582-7.264l6.47-148.13
	l56.5,17.305l0.004-0.013c0.722,0.221,1.47,0.347,2.227,0.347c1.421,0,2.859-0.399,4.139-1.232c3.515-2.29,4.508-6.995,2.218-10.51
	L294.452,3.448c-1.289-1.98-3.426-3.246-5.782-3.427c-2.353-0.176-4.661,0.744-6.237,2.502l-65.436,72.972
	C214.198,78.619,214.461,83.421,217.584,86.221z M326.578,80.588l-39.643-12.142l5.781-39.837L326.578,80.588z M271.801,66.96
	l-30.003,3.636l35.167-39.216L271.801,66.96z"/>
<path d="M100.852,137.555c0.708,0.639,1.506,1.112,2.346,1.437l-0.002,0.006l74.959,29.031l3.511,66.214
	c0.215,4.052,3.567,7.194,7.577,7.193c0.136,0,0.272-0.003,0.409-0.011c4.189-0.222,7.405-3.798,7.182-7.986l-3.552-66.976
	l42.421-30.524l-0.891,64.334c-0.059,4.195,3.294,7.642,7.49,7.7c0.035,0.001,0.071,0.001,0.106,0.001
	c4.146,0,7.535-3.332,7.592-7.49l1.101-79.412c0.032-2.335-1.012-4.556-2.831-6.021L174.31,55.487
	c-3.138-2.528-7.704-2.164-10.404,0.828L100.3,126.828C97.489,129.943,97.737,134.746,100.852,137.555z M164.517,78.318
	l11.41,72.558l-56.962-22.061L164.517,78.318z M191.064,149.344l-10.959-69.686l50.87,40.968L191.064,149.344z"/>
<path d="M455.853,191.254l-15.675-34.108c-1.751-3.811-6.26-5.482-10.073-3.73c-3.812,1.751-5.482,6.262-3.73,10.074l11.478,24.978
	l-40.692,6.338l2.425-89.609l15.452,33.624c1.751,3.812,6.261,5.482,10.073,3.73c3.812-1.751,5.482-6.262,3.73-10.074
	l-29.063-63.244c-1.029-2.239-3.081-3.84-5.504-4.294c-2.426-0.452-4.916,0.297-6.686,2.013l-96.4,93.484
	c-1.323,1.283-2.133,3.002-2.283,4.838l-6.988,86.051c-0.339,4.181,2.775,7.846,6.955,8.186c0.21,0.017,0.417,0.025,0.624,0.025
	c3.915,0,7.239-3.01,7.562-6.982l6.149-75.721l77.115,31.416L305.21,502.033c-1.038,4.064,1.414,8.201,5.478,9.24
	c0.631,0.162,1.264,0.239,1.886,0.239c3.388,0,6.476-2.283,7.354-5.716l75.513-295.349l42.806-6.667l-88.582,297.969
	c-1.195,4.021,1.096,8.25,5.117,9.445c0.722,0.215,1.45,0.317,2.167,0.317c3.274,0,6.297-2.134,7.278-5.433l92.006-309.487
	C456.756,194.824,456.621,192.927,455.853,191.254z M382.026,192.538l-71.911-29.296l74.665-72.406L382.026,192.538z"/>
<path d="M22.746,233.038l52.982-1.844l6.688,26.757c0.864,3.451,3.96,5.755,7.363,5.755c0.611,0,1.229-0.074,1.847-0.229
	c4.07-1.017,6.544-5.141,5.527-9.211l-6.689-26.758l47.617-23.305l9.093,64.081c0.589,4.154,4.434,7.039,8.587,6.453
	c4.154-0.589,7.042-4.434,6.453-8.587l-10.563-74.432c-0.259-1.824-1.172-3.492-2.569-4.693l-89.388-76.84
	c-1.868-1.606-4.402-2.206-6.793-1.608c-2.391,0.597-4.344,2.319-5.237,4.616L4.954,223.058c-0.667,1.717-0.689,3.618-0.059,5.349
	l101.37,278.594c1.122,3.085,4.035,5.001,7.139,5.001c0.862,0,1.739-0.148,2.596-0.46c3.943-1.434,5.974-5.793,4.54-9.734
	L22.746,233.038z M23.289,217.819l29.882-76.859l18.789,75.166L23.289,217.819z M67.911,137.279l62.53,53.753L86.699,212.44
	L67.911,137.279z"/>
<path d="M102.455,275.475c-1.018-4.07-5.144-6.54-9.211-5.527c-4.07,1.018-6.544,5.142-5.527,9.211l56.641,226.596
	c0.864,3.451,3.96,5.755,7.363,5.755c0.611,0,1.229-0.074,1.847-0.229c4.07-1.018,6.544-5.142,5.527-9.211L102.455,275.475z"/>
<path d="M317.963,306.605l-80.966-87.945c-1.438-1.562-3.465-2.451-5.588-2.451s-4.15,0.889-5.588,2.451l-80.957,87.945
	c-1.533,1.665-2.243,3.924-1.938,6.166l6.293,46.335c0.565,4.156,4.387,7.07,8.548,6.504c4.156-0.564,7.068-4.391,6.504-8.548
	l-4.964-36.556l89.39,11.14l-17.127,171.512c-0.416,4.174,2.629,7.895,6.803,8.312c0.257,0.025,0.511,0.038,0.764,0.038
	c3.855,0,7.157-2.924,7.549-6.841l17.328-173.513l39.344-9.431l-24.604,181.168c-0.565,4.156,2.347,7.984,6.504,8.548
	c0.347,0.047,0.692,0.07,1.033,0.07c3.74,0,6.999-2.764,7.516-6.575l26.098-192.164C320.206,310.53,319.495,308.269,317.963,306.605
	z M262.516,315.891l-16.402-64.899l51.913,56.387L262.516,315.891z M227.485,239.281l19.418,76.834l-80.87-10.078L227.485,239.281z"
	/>
<path d="M167.856,383.457c-0.565-4.156-4.387-7.067-8.548-6.504c-4.156,0.564-7.068,4.391-6.504,8.548l16.22,119.434
	c0.518,3.81,3.776,6.575,7.516,6.575c0.34,0,0.686-0.023,1.033-0.07c4.156-0.564,7.068-4.391,6.504-8.548L167.856,383.457z"/>
<path d="M84.052,44.091c4.196,0,7.595-3.401,7.595-7.595V16.368c0-4.195-3.4-7.595-7.595-7.595c-4.196,0-7.595,3.401-7.595,7.595
	v20.128C76.456,40.69,79.856,44.091,84.052,44.091z"/>
<path d="M84.052,98.28c4.196,0,7.595-3.401,7.595-7.595V70.557c0-4.195-3.4-7.595-7.595-7.595c-4.196,0-7.595,3.401-7.595,7.595
	v20.128C76.456,94.879,79.856,98.28,84.052,98.28z"/>
<path d="M101.082,61.122h20.128c4.196,0,7.595-3.401,7.595-7.595s-3.4-7.595-7.595-7.595h-20.128c-4.196,0-7.595,3.401-7.595,7.595
	S96.886,61.122,101.082,61.122z"/>
<path d="M46.892,61.122H67.02c4.196,0,7.595-3.401,7.595-7.595s-3.4-7.595-7.595-7.595H46.892c-4.196,0-7.595,3.401-7.595,7.595
	S42.697,61.122,46.892,61.122z"/>
<path d="M462.81,57.256c4.196,0,7.595-3.401,7.595-7.595V29.533c0-4.195-3.4-7.595-7.595-7.595s-7.595,3.401-7.595,7.595v20.128
	C455.215,53.856,458.614,57.256,462.81,57.256z"/>
<path d="M470.406,103.85V83.723c0-4.195-3.4-7.595-7.595-7.595s-7.595,3.401-7.595,7.595v20.128c0,4.195,3.4,7.595,7.595,7.595
	S470.406,108.044,470.406,103.85z"/>
<path d="M499.969,59.096h-20.128c-4.196,0-7.595,3.401-7.595,7.595s3.4,7.595,7.595,7.595h20.128c4.196,0,7.595-3.401,7.595-7.595
	S504.165,59.096,499.969,59.096z"/>
<path d="M425.651,74.287h20.128c4.196,0,7.595-3.401,7.595-7.595s-3.4-7.595-7.595-7.595h-20.128c-4.196,0-7.595,3.401-7.595,7.595
	S421.457,74.287,425.651,74.287z"/>
<path d="M449.772,374.364c-4.196,0-7.595,3.401-7.595,7.595v20.128c0,4.195,3.4,7.595,7.595,7.595s7.595-3.401,7.595-7.595V381.96
	C457.368,377.765,453.967,374.364,449.772,374.364z"/>
<path d="M449.772,428.553c-4.196,0-7.595,3.401-7.595,7.595v20.128c0,4.195,3.4,7.595,7.595,7.595s7.595-3.401,7.595-7.595v-20.128
	C457.368,431.954,453.967,428.553,449.772,428.553z"/>
<path d="M486.93,411.523h-20.128c-4.196,0-7.595,3.401-7.595,7.595c0,4.195,3.4,7.595,7.595,7.595h20.128
	c4.196,0,7.595-3.401,7.595-7.595C494.525,414.924,491.126,411.523,486.93,411.523z"/>
<path d="M432.74,411.523h-20.127c-4.196,0-7.595,3.401-7.595,7.595c0,4.195,3.4,7.595,7.595,7.595h20.127
	c4.196,0,7.595-3.401,7.595-7.595C440.336,414.924,436.936,411.523,432.74,411.523z"/>
<g>
</g>
<g>
</g>
<g>
</g>
<g>
</g>
<g>
</g>
<g>
</g>
<g>
</g>
<g>
</g>
<g>
</g>
<g>
</g>
<g>
</g>
<g>
</g>
<g>
</g>
<g>
</g>
<g>
</g>
</svg>
