<?xml version="1.0" encoding="iso-8859-1"?>
<!-- Generator: Adobe Illustrator 19.0.0, SVG Export Plug-In . SVG Version: 6.00 Build 0)  -->
<svg version="1.1" id="Capa_1" xmlns="http://www.w3.org/2000/svg" xmlns:xlink="http://www.w3.org/1999/xlink" x="0px" y="0px"
	 viewBox="0 0 512.001 512.001" style="enable-background:new 0 0 512.001 512.001;" xml:space="preserve">
<path style="fill:#CF8BFC;" d="M446.545,105.623v398.772h-332.07c-27.07,0-49.01-21.94-49.01-49.01V56.613l58.855,7.574
	L446.545,105.623z"/>
<g>
	<path style="fill:#9966CC;" d="M124.32,64.187v440.208h-9.845c-27.07,0-49.01-21.94-49.01-49.01V56.613L124.32,64.187z"/>
	<path style="fill:#9966CC;" d="M446.54,105.627H114.474c-27.068,0-49.012-21.943-49.012-49.012l0,0
		c0.001-27.068,21.944-49.011,49.012-49.011H446.54V105.627z"/>
</g>
<path style="fill:#EDE6F5;" d="M416.464,38.293v67.331H114.475c-27.07,0-49.01-21.94-49.01-49.01c0-6.479,1.257-12.663,3.538-18.32
	H416.464z"/>
<path style="fill:#F9D366;" d="M406.325,410.887V197.976c-30.236,0-54.749-24.512-54.749-54.749h-204.8v267.659
	c30.236,0,54.749,24.512,54.749,54.749h150.051C351.577,435.399,376.089,410.887,406.325,410.887z"/>
<polygon style="fill:#ED4596;" points="221.648,416.463 172.983,375.908 124.318,416.463 124.318,73.778 221.648,73.778 "/>
<rect x="124.321" y="73.779" style="fill:#D83289;" width="97.331" height="36.919"/>
<path d="M446.54,0H114.474C83.256,0,57.858,25.398,57.858,56.616v398.769c0,31.218,25.398,56.616,56.616,56.616h332.065
	c4.2,0,7.604-3.405,7.604-7.604v-56.501c0-4.199-3.404-7.604-7.604-7.604s-7.604,3.405-7.604,7.604v48.896H114.474
	c-22.833,0-41.408-18.576-41.408-41.408V95.203c6.106,6.566,13.799,11.734,22.628,14.838c3.963,1.392,8.303-0.69,9.696-4.653
	c1.393-3.962-0.69-8.303-4.652-9.696C84.187,89.875,73.066,74.17,73.066,56.615c0-22.831,18.576-41.407,41.408-41.407h324.461
	v82.815h-14.868V38.293c0-4.199-3.404-7.604-7.604-7.604H98.11c-4.2,0-7.604,3.405-7.604,7.604s3.404,7.604,7.604,7.604h310.749
	v52.127H248.162c-4.2,0-7.604,3.405-7.604,7.604c0,4.199,3.404,7.604,7.604,7.604h190.773v309.315c0,4.199,3.404,7.604,7.604,7.604
	s7.604-3.405,7.604-7.604V105.627V7.604C454.144,3.405,450.739,0,446.54,0z"/>
<path d="M124.318,171.615c-4.2,0-7.604,3.405-7.604,7.604v237.244c0,2.95,1.707,5.635,4.378,6.886
	c2.674,1.251,5.826,0.845,8.094-1.044l43.797-36.498l43.797,36.498c1.394,1.162,3.123,1.763,4.87,1.762
	c1.094,0,2.195-0.236,3.225-0.718c2.672-1.251,4.378-3.936,4.378-6.886V73.778c0-4.199-3.404-7.604-7.604-7.604h-97.331
	c-4.2,0-7.604,3.405-7.604,7.604v80.094c0,4.199,3.404,7.604,7.604,7.604s7.604-3.405,7.604-7.604v-35.57h55.323
	c4.2,0,7.604-3.405,7.604-7.604c0-4.199-3.404-7.604-7.604-7.604h-55.323V81.382h82.123v318.846l-36.193-30.161
	c-2.82-2.35-6.917-2.35-9.737,0l-36.193,30.161V179.219C131.922,175.02,128.518,171.615,124.318,171.615z"/>
<path d="M164.748,422.035c17.721,7.314,29.172,24.428,29.172,43.6c0,4.199,3.404,7.604,7.604,7.604h150.051
	c4.2,0,7.604-3.405,7.604-7.604c0-25.995,21.148-47.145,47.145-47.145c4.2,0,7.604-3.405,7.604-7.604V197.976
	c0-4.199-3.404-7.604-7.604-7.604c-25.996,0-47.145-21.149-47.145-47.145c0-4.199-3.404-7.604-7.604-7.604H248.162
	c-4.2,0-7.604,3.405-7.604,7.604s3.404,7.604,7.604,7.604h96.271c3.456,28.317,25.969,50.83,54.287,54.287v198.626
	c-28.318,3.457-50.831,25.97-54.287,54.287H208.67c-2.691-22.198-17.056-41.36-38.12-50.054c-3.881-1.602-8.327,0.246-9.93,4.128
	C159.019,415.987,160.866,420.433,164.748,422.035z"/>
<g>
</g>
<g>
</g>
<g>
</g>
<g>
</g>
<g>
</g>
<g>
</g>
<g>
</g>
<g>
</g>
<g>
</g>
<g>
</g>
<g>
</g>
<g>
</g>
<g>
</g>
<g>
</g>
<g>
</g>
</svg>
