<?xml version="1.0" encoding="iso-8859-1"?>
<!-- Generator: Adobe Illustrator 19.0.0, SVG Export Plug-In . SVG Version: 6.00 Build 0)  -->
<svg version="1.1" id="Capa_1" xmlns="http://www.w3.org/2000/svg" xmlns:xlink="http://www.w3.org/1999/xlink" x="0px" y="0px"
	 viewBox="0 0 512 512" style="enable-background:new 0 0 512 512;" xml:space="preserve">
<g>
	<path style="fill:#F9D366;" d="M471.441,112.402l22.874-4.638c10.799-2.19,10.799-17.624,0-19.812l-22.874-4.638
		c-22.541-4.57-40.159-22.187-44.73-44.73l-4.638-22.874c-2.189-10.799-17.624-10.799-19.813,0l-4.638,22.874
		c-4.57,22.541-22.187,40.159-44.73,44.73l-22.874,4.638c-10.799,2.189-10.799,17.623,0,19.812l22.874,4.638
		c22.541,4.57,40.159,22.187,44.73,44.73l4.638,22.874c2.19,10.799,17.624,10.799,19.813,0l4.638-22.874
		C431.282,134.59,448.899,116.972,471.441,112.402z"/>
	<path style="fill:#F9D366;" d="M472.185,316.441c-76.356,76.356-200.152,76.356-276.508,0s-76.356-200.152,0-276.508
		c12.885-12.885,27.125-23.588,42.256-32.123C180.577,12.045,124.41,36.087,80.551,79.946c-97.097,97.097-97.097,254.523,0,351.62
		s254.523,97.097,351.62,0c43.859-43.859,67.9-100.026,72.137-157.383C495.772,289.315,485.071,303.555,472.185,316.441z"/>
</g>
<path style="fill:#DD8833;" d="M161.055,431.566c-97.098-97.097-97.097-254.523,0-351.62c2.992-2.992,6.046-5.883,9.149-8.69
	c7.252-11.08,15.738-21.588,25.472-31.323c12.885-12.885,27.125-23.588,42.256-32.123C180.577,12.045,124.41,36.087,80.551,79.946
	c-97.097,97.097-97.097,254.523,0,351.62c58.822,58.822,139.784,81.997,216.062,69.549
	C246.98,493.016,199.33,469.841,161.055,431.566z"/>
<path style="fill:#F9D366;" d="M292.748,344.941l19.408-3.935c9.163-1.858,9.163-14.952,0-16.81l-19.408-3.935
	c-19.125-3.878-34.073-18.825-37.95-37.951l-3.934-19.408c-1.858-9.163-14.952-9.163-16.81,0l-3.934,19.408
	c-3.878,19.125-18.825,34.073-37.951,37.951l-19.408,3.935c-9.163,1.858-9.163,14.952,0,16.81l19.408,3.935
	c19.125,3.878,34.073,18.825,37.951,37.951l3.934,19.408c1.858,9.163,14.952,9.163,16.81,0l3.934-19.408
	C258.675,363.766,273.622,348.819,292.748,344.941z"/>
<path d="M234.451,110.479v20.17c0,4.203,3.408,7.611,7.611,7.611s7.611-3.408,7.611-7.611v-20.17c0-4.203-3.408-7.611-7.611-7.611
	S234.451,106.276,234.451,110.479z"/>
<path d="M249.673,184.95v-20.17c0-4.203-3.408-7.611-7.611-7.611s-7.611,3.408-7.611,7.611v20.17c0,4.203,3.408,7.611,7.611,7.611
	S249.673,189.154,249.673,184.95z"/>
<path d="M259.129,155.326h20.17c4.203,0,7.611-3.408,7.611-7.611s-3.408-7.611-7.611-7.611h-20.17c-4.203,0-7.611,3.408-7.611,7.611
	S254.925,155.326,259.129,155.326z"/>
<path d="M224.996,155.326c4.203,0,7.611-3.408,7.611-7.611s-3.408-7.611-7.611-7.611h-20.17c-4.203,0-7.611,3.408-7.611,7.611
	s3.408,7.611,7.611,7.611H224.996z"/>
<path d="M458.273,217.984c0-4.203-3.408-7.611-7.611-7.611c-4.203,0-7.611,3.408-7.611,7.611v20.17c0,4.203,3.408,7.611,7.611,7.611
	c4.203,0,7.611-3.408,7.611-7.611V217.984z"/>
<path d="M450.662,264.675c-4.203,0-7.611,3.408-7.611,7.611v20.17c0,4.203,3.408,7.611,7.611,7.611c4.203,0,7.611-3.408,7.611-7.611
	v-20.17C458.273,268.083,454.866,264.675,450.662,264.675z"/>
<path d="M467.727,247.609c-4.203,0-7.611,3.408-7.611,7.611c0,4.203,3.408,7.611,7.611,7.611h20.17c4.203,0,7.611-3.408,7.611-7.611
	c0-4.203-3.408-7.611-7.611-7.611H467.727z"/>
<path d="M413.426,262.831h20.17c4.203,0,7.611-3.408,7.611-7.611c0-4.203-3.408-7.611-7.611-7.611h-20.17
	c-4.203,0-7.611,3.408-7.611,7.611C405.815,259.424,409.223,262.831,413.426,262.831z"/>
<path d="M328.507,115.225l22.875,4.638c19.588,3.971,34.811,19.194,38.782,38.782l4.638,22.874
	c1.695,8.36,8.836,14.198,17.366,14.198c8.53,0,15.671-5.838,17.366-14.198l4.638-22.874c3.971-19.588,19.194-34.811,38.782-38.782
	l22.874-4.638c8.36-1.695,14.198-8.836,14.198-17.366s-5.838-15.671-14.198-17.366l-22.874-4.638
	c-19.588-3.971-34.811-19.194-38.782-38.782l-4.638-22.874C427.839,5.838,420.698,0,412.168,0c-8.531,0-15.671,5.838-17.366,14.198
	l-4.638,22.874c-3.971,19.588-19.194,34.811-38.782,38.782l-22.875,4.638c-8.359,1.695-14.198,8.836-14.198,17.366
	S320.148,113.529,328.507,115.225z M331.532,95.411l22.875-4.638c25.596-5.19,45.487-25.081,50.676-50.676l4.638-22.874
	c0.269-1.327,1.092-2,2.447-2c1.354,0,2.178,0.673,2.447,2l4.638,22.874c5.19,25.595,25.08,45.487,50.676,50.676l22.874,4.638
	c1.327,0.269,2,1.092,2,2.447c0,1.355-0.673,2.178-2,2.447l-22.874,4.638c-25.596,5.19-45.487,25.081-50.676,50.676l-4.638,22.874
	c-0.269,1.327-1.092,2-2.447,2c-1.355,0-2.178-0.673-2.447-2l-4.638-22.874c-5.19-25.595-25.08-45.487-50.676-50.676l-22.875-4.638
	c-1.327-0.269-2-1.092-2-2.447C329.532,96.503,330.205,95.68,331.532,95.411z"/>
<path d="M395.905,355.629c-31.35,10.924-65.193,13.353-97.87,7.026c-4.123-0.8-8.12,1.899-8.919,6.026
	c-0.799,4.127,1.899,8.12,6.026,8.919c12.826,2.483,25.817,3.718,38.787,3.718c22.738,0,45.408-3.795,66.986-11.313
	c3.97-1.383,6.067-5.723,4.683-9.692C404.213,356.344,399.871,354.249,395.905,355.629z"/>
<path d="M506.512,266.899c-3.412-1.033-7.081,0.441-8.833,3.546c-8.363,14.825-18.752,28.49-30.876,40.614
	c-12.453,12.452-26.495,23.056-41.738,31.516c-3.676,2.04-5.001,6.674-2.961,10.348c2.04,3.676,6.673,5.001,10.348,2.961
	c16.482-9.148,31.661-20.608,45.115-34.062c5.173-5.173,10.054-10.607,14.624-16.275c-9.592,45.449-32.211,87.446-65.402,120.637
	c-45.523,45.523-106.05,70.593-170.428,70.593s-124.905-25.07-170.428-70.593c-34.889-34.89-57.96-78.895-66.719-127.258
	c-8.56-47.269-3.005-95.446,16.064-139.325c1.675-3.855-0.091-8.339-3.947-10.014c-3.856-1.675-8.339,0.092-10.014,3.947
	C1.044,200.183-4.863,251.397,4.236,301.637c9.313,51.428,33.841,98.218,70.933,135.31C123.568,485.346,187.917,512,256.361,512
	c68.445,0,132.794-26.654,181.191-75.053c43.423-43.423,69.827-101.028,74.346-162.203
	C512.162,271.19,509.923,267.93,506.512,266.899z"/>
<path d="M39.241,134.237c3.603,2.169,8.278,1.004,10.446-2.599c10.084-16.763,22.281-32.344,36.247-46.312
	c33.191-33.19,75.188-55.808,120.637-65.401c-5.668,4.57-11.101,9.451-16.275,14.624c-34.091,34.091-54.988,79.296-58.841,127.287
	c-3.809,47.445,9.151,94.857,36.492,133.502c1.483,2.097,3.833,3.216,6.22,3.216c1.52,0,3.055-0.454,4.389-1.398
	c3.432-2.428,4.246-7.178,1.818-10.61c-25.285-35.737-37.27-79.595-33.745-123.491c3.564-44.39,22.895-86.204,54.431-117.741
	c12.124-12.124,25.789-22.513,40.614-30.876c3.104-1.752,4.577-5.421,3.546-8.833c-1.031-3.411-4.275-5.641-7.846-5.387
	C176.198,4.737,118.593,31.14,75.17,74.563c-14.843,14.843-27.805,31.405-38.528,49.228
	C34.475,127.393,35.639,132.07,39.241,134.237z"/>
<path d="M262.257,280.799l-3.934-19.408c-1.549-7.637-8.072-12.971-15.865-12.971s-14.316,5.333-15.865,12.971l-3.934,19.408
	c-3.277,16.164-15.839,28.726-32.004,32.004l-19.408,3.934c-7.637,1.549-12.971,8.073-12.971,15.865
	c0,7.792,5.333,14.316,12.971,15.865l19.408,3.935c16.164,3.277,28.726,15.838,32.004,32.003l3.934,19.408
	c1.549,7.637,8.072,12.971,15.865,12.971s14.316-5.334,15.865-12.971l3.935-19.408c3.277-16.164,15.838-28.726,32.003-32.003
	l19.408-3.935c7.637-1.549,12.971-8.072,12.971-15.865s-5.334-14.316-12.971-15.865l-19.408-3.934
	C278.097,309.525,265.534,296.963,262.257,280.799z M310.643,331.656c0.362,0.073,0.773,0.156,0.773,0.946s-0.411,0.872-0.773,0.946
	l-19.408,3.935c-22.172,4.496-39.402,21.725-43.897,43.897l-3.934,19.408c-0.073,0.362-0.156,0.773-0.946,0.773
	s-0.872-0.411-0.946-0.773l-3.934-19.408c-4.496-22.172-21.726-39.402-43.897-43.897l-19.408-3.935
	c-0.362-0.073-0.772-0.156-0.772-0.946s0.41-0.872,0.772-0.946l19.408-3.934c22.171-4.496,39.402-21.726,43.897-43.897l3.934-19.408
	c0.073-0.362,0.156-0.772,0.946-0.772s0.872,0.41,0.946,0.772l3.934,19.408c4.496,22.171,21.725,39.402,43.897,43.897
	L310.643,331.656z"/>
<g>
</g>
<g>
</g>
<g>
</g>
<g>
</g>
<g>
</g>
<g>
</g>
<g>
</g>
<g>
</g>
<g>
</g>
<g>
</g>
<g>
</g>
<g>
</g>
<g>
</g>
<g>
</g>
<g>
</g>
</svg>
