<?xml version="1.0" encoding="iso-8859-1"?>
<!-- Generator: Adobe Illustrator 19.0.0, SVG Export Plug-In . SVG Version: 6.00 Build 0)  -->
<svg version="1.1" id="Capa_1" xmlns="http://www.w3.org/2000/svg" xmlns:xlink="http://www.w3.org/1999/xlink" x="0px" y="0px"
	 viewBox="0 0 511.998 511.998" style="enable-background:new 0 0 511.998 511.998;" xml:space="preserve">
<path style="fill:#CF8BFC;" d="M487.124,254.788c0,95.146-69.502,148.37-69.502,196.938c0,28.837-73.943,52.213-165.154,52.213
	c-30.73,0-59.503-2.656-84.136-7.279c-48.503-9.086-81.018-25.805-81.018-44.934c0-24.278-17.376-49.729-34.751-81.007
	c-17.376-31.267-34.751-68.363-34.751-115.93c0-33.536,70.362-61.868,166.95-71.061c21.44-2.032,44.17-3.129,67.707-3.129
	C382.064,180.597,487.124,213.811,487.124,254.788z"/>
<g>
	<path style="fill:#9966CC;" d="M130.709,262.852c0,0-33.869,56.449,25.795,179.014c9.075,18.644,12.516,37.031,11.827,54.793
		c-48.503-9.086-81.018-25.805-81.018-44.934c0-24.278-17.376-49.729-34.751-81.007c-17.376-31.267-34.751-68.363-34.751-115.93
		c0-33.536,70.362-61.868,166.95-71.061c-1.645,9.655,0.828,20.483,11.72,31.375C230.21,248.82,130.709,262.852,130.709,262.852z"/>
	<path style="fill:#9966CC;" d="M453.071,254.788c-5.72-5.441-21.935-15.881-56.492-25.235c-20.279-5.484-43.525-9.72-68.492-12.537
		c-8.526-0.968-17.268-1.774-26.16-2.398c-16.085-1.161-32.676-1.753-49.46-1.753c-26.698,0-52.89,1.495-77.394,4.344
		c-24.3,2.817-46.923,6.978-66.717,12.344c-34.558,9.354-50.772,19.795-56.492,25.235c5.72,5.441,21.935,15.881,56.492,25.235
		c20.279,5.484,43.525,9.72,68.492,12.537c8.526,0.968,17.268,1.774,26.16,2.398c16.085,1.161,32.676,1.753,49.46,1.753
		c26.698,0,52.89-1.495,77.394-4.344c24.3-2.817,46.923-6.978,66.717-12.344C431.137,270.669,447.351,260.228,453.071,254.788z"/>
</g>
<path style="fill:#F9D366;" d="M484.898,182.941c-3.774,3.763-8.451,6.344-13.795,7.795c-34.375,9.333-66.115,26.493-91.297,51.686
	l-49.944,49.944c-24.504,2.849-50.697,4.344-77.394,4.344c-26.053,0-51.632-1.43-75.62-4.15L303.39,166.007
	c25.192-25.182,42.353-56.922,51.686-91.297c1.452-5.344,4.032-10.021,7.795-13.795c19.214-19.203,62.105-7.462,95.791,26.235
	C492.36,120.837,504.101,163.727,484.898,182.941z"/>
<path style="fill:#DD8833;" d="M457.609,86.118C436.491,66,404.568,64.839,385.677,83.72c-3.763,3.774-6.731,8.064-8.914,12.677
	c-14.021,29.698-33.902,58.707-59.083,83.9L203.007,294.958c-8.892-0.624-17.634-1.43-26.16-2.398L303.39,166.007
	c25.192-25.182,42.353-56.922,51.686-91.297c1.452-5.344,4.032-10.021,7.795-13.795C381.881,41.915,424.073,53.216,457.609,86.118z"
	/>
<path style="fill:#F9D366;" d="M214.273,142.226l16.981-3.443c8.017-1.626,8.017-13.082,0-14.708l-16.981-3.443
	c-16.734-3.392-29.812-16.47-33.204-33.204l-3.443-16.981c-1.626-8.017-13.082-8.017-14.708,0l-3.443,16.981
	c-3.392,16.734-16.47,29.812-33.204,33.204l-16.981,3.443c-8.017,1.626-8.017,13.082,0,14.708l16.981,3.443
	c16.734,3.392,29.812,16.47,33.204,33.204l3.443,16.981c1.626,8.017,13.082,8.017,14.708,0l3.443-16.981
	C184.462,158.697,197.54,145.619,214.273,142.226z"/>
<path d="M275.853,37.094c4.455,0,8.064-3.611,8.064-8.064V8.064c0-4.454-3.609-8.064-8.064-8.064s-8.064,3.611-8.064,8.064V29.03
	C267.789,33.483,271.4,37.094,275.853,37.094z"/>
<path d="M275.853,93.541c4.455,0,8.064-3.611,8.064-8.064V64.511c0-4.454-3.609-8.064-8.064-8.064s-8.064,3.611-8.064,8.064v20.966
	C267.789,89.93,271.4,93.541,275.853,93.541z"/>
<path d="M293.593,54.834h20.966c4.455,0,8.064-3.611,8.064-8.064s-3.609-8.064-8.064-8.064h-20.966
	c-4.455,0-8.064,3.611-8.064,8.064S289.14,54.834,293.593,54.834z"/>
<path d="M237.148,54.834h20.966c4.455,0,8.064-3.611,8.064-8.064s-3.61-8.064-8.064-8.064h-20.966c-4.454,0-8.064,3.611-8.064,8.064
	S232.693,54.834,237.148,54.834z"/>
<path d="M459.187,210.392c-3.917-2.122-8.81-0.672-10.934,3.244c-2.124,3.915-0.671,8.809,3.244,10.933
	c10.294,5.583,27.563,16.933,27.563,30.216c0,53.354-22.465,92.528-42.284,127.091c-14.604,25.467-27.216,47.46-27.216,69.844
	c0,18.436-59.763,44.15-157.092,44.15S95.376,470.155,95.376,451.72c0-22.384-12.611-44.378-27.216-69.844
	c-9.32-16.254-19.885-34.677-27.959-55.042c-1.642-4.141-6.33-6.164-10.468-4.525c-4.141,1.642-6.165,6.329-4.525,10.468
	c8.501,21.441,19.371,40.396,28.961,57.121c13.456,23.467,25.078,43.732,25.078,61.821c0,18.014,18.676,33.44,54.006,44.61
	c31.959,10.104,74.297,15.668,119.214,15.668s87.255-5.564,119.214-15.668c35.331-11.169,54.006-26.596,54.006-44.61
	c0-18.088,11.622-38.354,25.078-61.822c19.791-34.512,44.421-77.464,44.421-135.114C495.188,234.233,475.61,219.3,459.187,210.392z"
	/>
<path d="M31.996,301.967c-4.118-15.737-6.119-31.171-6.119-47.182c0-10.025,10.11-20.929,28.47-30.704
	c20.071-10.687,48.955-19.628,83.526-25.857c4.383-0.79,7.296-4.984,6.506-9.366c-0.79-4.384-4.986-7.298-9.366-6.506
	c-36.199,6.522-66.714,16.03-88.247,27.494c-30.595,16.291-37.018,33.431-37.018,44.94c0,17.408,2.173,34.177,6.644,51.264
	c0.948,3.625,4.217,6.026,7.796,6.026c0.675,0,1.362-0.086,2.046-0.265C30.545,310.683,33.123,306.277,31.996,301.967z"/>
<path d="M202.074,190.378c0.187,0,0.375-0.006,0.564-0.02c16.263-1.125,33.028-1.695,49.829-1.695c4.454,0,8.064-3.611,8.064-8.064
	s-3.61-8.064-8.064-8.064c-17.171,0-34.311,0.583-50.942,1.733c-4.443,0.308-7.795,4.158-7.488,8.602
	C194.331,187.123,197.874,190.378,202.074,190.378z"/>
<path d="M197.073,260.927c-3.149,3.149-3.148,8.256,0,11.405c1.575,1.574,3.639,2.361,5.702,2.361s4.128-0.787,5.703-2.362
	l100.614-100.622c25.144-25.134,43.737-57.946,53.768-94.887c1.107-4.079,3.033-7.517,5.713-10.205
	c15.77-15.762,54.416-3.748,84.389,26.234c5.452,5.452,10.412,11.274,14.739,17.302c2.598,3.618,7.636,4.445,11.253,1.849
	c3.618-2.597,4.447-7.635,1.849-11.253c-4.836-6.739-10.367-13.234-16.437-19.302c-37.398-37.41-84.481-48.938-107.205-26.228
	c-4.694,4.708-8.015,10.554-9.867,17.376c-9.294,34.23-26.447,64.558-49.606,87.708L197.073,260.927z"/>
<path d="M480.553,133.018c7.799,19.037,7.291,35.569-1.349,44.214c-2.697,2.689-6.133,4.615-10.214,5.723
	c-36.94,10.03-69.753,28.621-94.886,53.765l-20.784,20.784c-3.149,3.149-3.149,8.254,0,11.404c1.575,1.575,3.639,2.362,5.703,2.362
	c2.063,0,4.128-0.787,5.703-2.362l20.785-20.785c23.147-23.158,53.475-40.311,87.706-49.604c6.822-1.853,12.668-5.173,17.385-9.877
	c13.598-13.606,15.376-36.109,4.876-61.738c-1.688-4.12-6.4-6.093-10.519-4.405C480.838,124.187,478.865,128.896,480.553,133.018z"
	/>
<path d="M110.463,272.239c-37.984-10.282-50.848-21.209-53.042-23.295c-3.226-3.069-8.331-2.942-11.401,0.286
	c-3.07,3.227-2.942,8.332,0.285,11.401c4.838,4.602,20.365,16.464,59.945,27.176c20.642,5.581,44.089,9.877,69.688,12.766
	c8.731,0.99,17.649,1.809,26.488,2.428c16.299,1.177,33.135,1.773,50.041,1.773c26.878,0,53.232-1.48,78.323-4.397
	c24.953-2.892,47.797-7.123,67.896-12.57c39.576-10.712,55.103-22.573,59.943-27.175c3.227-3.069,3.355-8.174,0.286-11.401
	c-3.07-3.228-8.174-3.355-11.402-0.286c-2.193,2.086-15.058,13.013-53.044,23.296c-19.33,5.24-41.379,9.317-65.539,12.118
	c-24.48,2.846-50.204,4.289-76.463,4.289c-16.52,0-32.965-0.583-48.896-1.732c-8.628-0.605-17.313-1.401-25.82-2.367
	C152.957,281.749,130.317,277.608,110.463,272.239z"/>
<path d="M107.689,146.687l16.98,3.443c13.589,2.755,24.148,13.314,26.903,26.903l3.443,16.98
	c1.489,7.345,7.764,12.475,15.257,12.475c7.494,0,13.768-5.13,15.256-12.475l3.443-16.98c2.755-13.589,13.314-24.148,26.903-26.903
	l16.98-3.443c7.345-1.489,12.475-7.763,12.475-15.257s-5.13-13.768-12.475-15.257l-16.98-3.443
	c-13.589-2.755-24.148-13.314-26.903-26.903l-3.443-16.98c-1.489-7.345-7.762-12.475-15.256-12.476l0,0
	c-7.493,0-13.768,5.13-15.257,12.475l-3.443,16.98c-2.755,13.589-13.314,24.148-26.903,26.903l-16.98,3.443
	c-7.345,1.489-12.475,7.763-12.475,15.257C95.214,138.923,100.344,145.198,107.689,146.687z M127.874,128.536
	c19.953-4.046,35.46-19.553,39.506-39.506l2.893-14.266l2.892,14.266c4.046,19.953,19.553,35.46,39.506,39.506l14.266,2.893
	l-14.266,2.892c-19.953,4.046-35.46,19.553-39.506,39.506l-2.895,14.266l-2.891-14.266c-4.046-19.953-19.553-35.46-39.506-39.506
	l-14.266-2.895L127.874,128.536z"/>
<g>
</g>
<g>
</g>
<g>
</g>
<g>
</g>
<g>
</g>
<g>
</g>
<g>
</g>
<g>
</g>
<g>
</g>
<g>
</g>
<g>
</g>
<g>
</g>
<g>
</g>
<g>
</g>
<g>
</g>
</svg>
