<?xml version="1.0" encoding="iso-8859-1"?>
<!-- Generator: Adobe Illustrator 19.0.0, SVG Export Plug-In . SVG Version: 6.00 Build 0)  -->
<svg version="1.1" id="Capa_1" xmlns="http://www.w3.org/2000/svg" xmlns:xlink="http://www.w3.org/1999/xlink" x="0px" y="0px"
	 viewBox="0 0 512 512" style="enable-background:new 0 0 512 512;" xml:space="preserve">
<circle style="fill:#F777CE;" cx="256" cy="256" r="248.396"/>
<path style="fill:#ED4596;" d="M107.311,256c0-120.11,85.25-220.306,198.542-243.39C289.747,9.33,273.075,7.604,256,7.604
	C118.814,7.604,7.604,118.814,7.604,256S118.814,504.396,256,504.396c17.075,0,33.747-1.726,49.854-5.006
	C192.562,476.306,107.311,376.11,107.311,256z"/>
<path d="M148.689,419.826c-4.199,0-7.604,3.405-7.604,7.604v20.15c0,4.199,3.405,7.604,7.604,7.604c4.199,0,7.604-3.405,7.604-7.604
	v-20.15C156.293,423.23,152.888,419.826,148.689,419.826z"/>
<path d="M148.689,365.576c-4.199,0-7.604,3.405-7.604,7.604v20.15c0,4.199,3.405,7.604,7.604,7.604c4.199,0,7.604-3.405,7.604-7.604
	v-20.15C156.293,368.981,152.888,365.576,148.689,365.576z"/>
<path d="M131.639,402.776h-20.151c-4.199,0-7.604,3.405-7.604,7.604c0,4.199,3.405,7.604,7.604,7.604h20.151
	c4.199,0,7.604-3.405,7.604-7.604C139.243,406.18,135.838,402.776,131.639,402.776z"/>
<path d="M185.889,402.776h-20.15c-4.199,0-7.604,3.405-7.604,7.604c0,4.199,3.405,7.604,7.604,7.604h20.15
	c4.199,0,7.604-3.405,7.604-7.604C193.493,406.18,190.089,402.776,185.889,402.776z"/>
<path d="M363.311,419.826c-4.199,0-7.604,3.405-7.604,7.604v20.15c0,4.199,3.405,7.604,7.604,7.604c4.199,0,7.604-3.405,7.604-7.604
	v-20.15C370.915,423.23,367.511,419.826,363.311,419.826z"/>
<path d="M363.311,365.576c-4.199,0-7.604,3.405-7.604,7.604v20.15c0,4.199,3.405,7.604,7.604,7.604c4.199,0,7.604-3.405,7.604-7.604
	v-20.15C370.915,368.981,367.511,365.576,363.311,365.576z"/>
<path d="M346.261,402.776h-20.15c-4.199,0-7.604,3.405-7.604,7.604c0,4.199,3.405,7.604,7.604,7.604h20.15
	c4.199,0,7.604-3.405,7.604-7.604C353.865,406.18,350.46,402.776,346.261,402.776z"/>
<path d="M400.512,402.776h-20.151c-4.199,0-7.604,3.405-7.604,7.604c0,4.199,3.405,7.604,7.604,7.604h20.151
	c4.199,0,7.604-3.405,7.604-7.604C408.116,406.18,404.711,402.776,400.512,402.776z"/>
<path d="M255.054,118.864c4.199,0,7.604-3.405,7.604-7.604V91.111c0-4.199-3.405-7.604-7.604-7.604s-7.604,3.405-7.604,7.604v20.15
	C247.45,115.46,250.855,118.864,255.054,118.864z"/>
<path d="M255.054,64.614c4.199,0,7.604-3.405,7.604-7.604V36.86c0-4.199-3.405-7.604-7.604-7.604s-7.604,3.405-7.604,7.604v20.15
	C247.45,61.21,250.855,64.614,255.054,64.614z"/>
<path d="M217.853,81.665h20.15c4.199,0,7.604-3.405,7.604-7.604c0-4.199-3.405-7.604-7.604-7.604h-20.15
	c-4.199,0-7.604,3.405-7.604,7.604C210.25,78.26,213.654,81.665,217.853,81.665z"/>
<path d="M272.104,81.665h20.15c4.199,0,7.604-3.405,7.604-7.604c0-4.199-3.405-7.604-7.604-7.604h-20.15
	c-4.199,0-7.604,3.405-7.604,7.604C264.5,78.26,267.905,81.665,272.104,81.665z"/>
<path d="M427.961,202.314c-4.199,0-7.604,3.405-7.604,7.604v20.15c0,4.199,3.405,7.604,7.604,7.604s7.604-3.405,7.604-7.604v-20.15
	C435.565,205.719,432.16,202.314,427.961,202.314z"/>
<path d="M435.565,155.668c0-4.199-3.405-7.604-7.604-7.604s-7.604,3.405-7.604,7.604v20.15c0,4.199,3.405,7.604,7.604,7.604
	s7.604-3.405,7.604-7.604V155.668z"/>
<path d="M390.76,185.264c-4.199,0-7.604,3.405-7.604,7.604s3.405,7.604,7.604,7.604h20.151c4.199,0,7.604-3.405,7.604-7.604
	s-3.405-7.604-7.604-7.604H390.76z"/>
<path d="M437.407,192.868c0,4.199,3.405,7.604,7.604,7.604h20.151c4.199,0,7.604-3.405,7.604-7.604s-3.405-7.604-7.604-7.604
	h-20.151C440.812,185.264,437.407,188.668,437.407,192.868z"/>
<path d="M84.04,237.671c4.199,0,7.604-3.405,7.604-7.604v-20.15c0-4.199-3.405-7.604-7.604-7.604s-7.604,3.405-7.604,7.604v20.15
	C76.436,234.267,79.841,237.671,84.04,237.671z"/>
<path d="M84.04,183.422c4.199,0,7.604-3.405,7.604-7.604v-20.149c0-4.199-3.405-7.604-7.604-7.604s-7.604,3.405-7.604,7.604v20.15
	C76.436,180.017,79.841,183.422,84.04,183.422z"/>
<path d="M46.839,200.472h20.15c4.199,0,7.604-3.405,7.604-7.604s-3.405-7.604-7.604-7.604h-20.15c-4.199,0-7.604,3.405-7.604,7.604
	S42.64,200.472,46.839,200.472z"/>
<path d="M101.09,200.472h20.15c4.199,0,7.604-3.405,7.604-7.604s-3.405-7.604-7.604-7.604h-20.15c-4.199,0-7.604,3.405-7.604,7.604
	S96.89,200.472,101.09,200.472z"/>
<path d="M477.469,127.514c-2.112-3.632-6.766-4.863-10.395-2.752c-3.631,2.111-4.862,6.764-2.752,10.395
	c21.241,36.54,32.47,78.326,32.47,120.842c0,22.063-2.948,43.671-8.656,64.378l-132.961-96.602l50.743-156.168
	c15.863,12.647,30.175,27.276,42.389,43.456c2.532,3.353,7.299,4.018,10.65,1.487c3.352-2.531,4.018-7.299,1.487-10.65
	c-23.37-30.957-53.943-56.6-88.413-74.157C335.883,9.335,296.844,0,256,0C187.62,0,123.332,26.629,74.981,74.981S0,187.62,0,256
	s26.629,132.668,74.981,181.019S187.62,512,256,512s132.668-26.629,181.019-74.981S512,324.38,512,256
	C512,210.801,500.06,166.373,477.469,127.514z M468.837,325.155H322.235l27.998-86.171L468.837,325.155z M210.698,340.362h90.606
	L256,479.789L210.698,340.362z M169.763,214.378L124.46,74.951l118.604,86.17L169.763,214.378z M256,170.52l81.296,59.065
	l-31.052,95.57H205.757l-31.053-95.57L256,170.52z M342.237,214.378l-73.301-53.256l118.604-86.17L342.237,214.378z M365.128,41.297
	c8.166,4.159,16.097,8.802,23.749,13.885L256,151.721L123.071,55.143C162.152,29.163,208.002,15.208,256,15.208
	C294.422,15.208,331.139,23.986,365.128,41.297z M85.734,85.734c6.482-6.482,13.277-12.532,20.335-18.17l50.757,156.213
	L23.864,320.379c-5.708-20.707-8.656-42.317-8.656-64.379C15.208,191.683,40.254,131.214,85.734,85.734z M30.352,340.362H92.77
	c4.199,0,7.604-3.405,7.604-7.604s-3.405-7.604-7.604-7.604H43.164l118.604-86.171l27.999,86.171h-71.648
	c-4.199,0-7.604,3.405-7.604,7.604s3.405,7.604,7.604,7.604h76.589l50.75,156.19c-60.359-2.583-116.737-27.302-159.723-70.288
	C60.951,401.483,42.253,372.244,30.352,340.362z M426.266,426.266c-42.986,42.986-99.362,67.704-159.723,70.288l50.75-156.19
	h164.355C469.747,372.244,451.049,401.483,426.266,426.266z"/>
<g>
</g>
<g>
</g>
<g>
</g>
<g>
</g>
<g>
</g>
<g>
</g>
<g>
</g>
<g>
</g>
<g>
</g>
<g>
</g>
<g>
</g>
<g>
</g>
<g>
</g>
<g>
</g>
<g>
</g>
</svg>
