<svg height="511pt" viewBox="0 -8 511.94785 511" width="511pt" xmlns="http://www.w3.org/2000/svg"><path d="m460.808594 247.269531c0 113.105469-91.695313 204.796875-204.800782 204.796875-113.109374 0-204.800781-91.691406-204.800781-204.796875 0-113.109375 91.691407-204.800781 204.800781-204.800781 113.105469 0 204.800782 91.691406 204.800782 204.800781zm0 0" fill="#4527a0"/><path d="m409.605469 247.269531c0-113.109375-76.410157-204.800781-170.664063-204.800781-94.257812 0-170.667968 91.691406-170.667968 204.800781 0 113.105469 76.410156 204.796875 170.667968 204.796875 94.253906 0 170.664063-91.691406 170.664063-204.796875zm0 0" fill="#673ab7"/><path d="m256.007812 16.867188c-127.246093 0-230.402343 103.15625-230.402343 230.402343 0 127.246094 103.15625 230.398438 230.402343 230.398438 127.246094 0 230.398438-103.152344 230.398438-230.398438 0-61.105469-24.273438-119.710937-67.480469-162.917969-43.210937-43.210937-101.8125-67.484374-162.917969-67.484374zm0 418.132812c-103.683593 0-187.734374-84.050781-187.734374-187.730469 0-103.683593 84.050781-187.734375 187.734374-187.734375 103.679688 0 187.730469 84.050782 187.730469 187.734375-.121093 103.628907-84.101562 187.609375-187.730469 187.730469zm0 0" fill="#9d27b0"/><g fill="#b49aca"><path d="m351.316406 55.355469c-1.269531-.011719-2.519531-.300781-3.660156-.855469-58.015625-27.453125-125.28125-27.453125-183.296875 0-4.257813 2.027344-9.347656.21875-11.375-4.035156-2.027344-4.257813-.21875-9.347656 4.035156-11.375 62.660157-29.664063 135.316407-29.664063 197.972657 0 3.574218 1.730468 5.480468 5.695312 4.605468 9.566406-.878906 3.871094-4.3125 6.625-8.28125 6.644531zm0 0"/><path d="m36.339844 287.117188c-4.242188-.007813-7.835938-3.132813-8.429688-7.335938-12.136718-85.152344 24.191406-169.96875 94.199219-219.9375 3.835937-2.738281 9.167969-1.847656 11.90625 1.988281 2.738281 3.835938 1.847656 9.164063-1.988281 11.902344-64.824219 46.273437-98.457032 124.808594-87.21875 203.65625.65625 4.664063-2.589844 8.984375-7.253906 9.644531-.402344.054688-.808594.085938-1.214844.082032zm0 0"/><path d="m261.03125 477.582031c-4.710938.050781-8.570312-3.730469-8.621094-8.441406-.050781-4.714844 3.730469-8.574219 8.445313-8.625 96.828125-2.074219 180.066406-69.226563 202.570312-163.429687.65625-3.019532 2.894531-5.449219 5.847657-6.351563 2.957031-.902344 6.167968-.136719 8.398437 2.003906 2.230469 2.136719 3.128906 5.316407 2.351563 8.308594-24.308594 101.75-114.210938 174.289063-218.804688 176.535156zm0 0"/><path d="m475.671875 287.117188c-.40625.003906-.808594-.027344-1.210937-.082032-4.667969-.660156-7.914063-4.980468-7.253907-9.644531 11.234375-78.847656-22.398437-157.382813-87.21875-203.65625-3.835937-2.738281-4.726562-8.066406-1.988281-11.902344 2.738281-3.835937 8.066406-4.726562 11.902344-1.988281 70.011718 49.96875 106.335937 134.785156 94.199218 219.9375-.59375 4.203125-4.183593 7.328125-8.429687 7.335938zm0 0"/><path d="m250.714844 477.582031h-.203125c-104.46875-2.4375-194.191407-74.929687-218.523438-176.554687-.777343-2.988282.121094-6.167969 2.351563-8.308594 2.230468-2.136719 5.445312-2.902344 8.398437-2 2.957031.898438 5.195313 3.328125 5.847657 6.351562 22.53125 94.078126 105.589843 161.1875 202.300781 163.453126 4.710937.054687 8.488281 3.921874 8.433593 8.632812-.050781 4.714844-3.917968 8.488281-8.628906 8.433594zm0 0"/><path d="m319.066406 79.085938c-.992187-.003907-1.980468-.179688-2.917968-.523438-38.894532-13.941406-81.425782-13.941406-120.320313 0-4.429687 1.613281-9.328125-.671875-10.9375-5.101562-1.613281-4.429688.671875-9.328126 5.101563-10.9375 42.65625-15.292969 89.300781-15.292969 131.960937 0 3.90625 1.402343 6.234375 5.417968 5.515625 9.507812-.722656 4.089844-4.28125 7.070312-8.433594 7.054688zm0 0"/><path d="m68.445312 255.035156h-8.535156c-.085937-2.449218-.171875-5.121094-.171875-7.765625-.078125-59.15625 26.660157-115.160156 72.707031-152.296875 2.367188-1.917968 5.582032-2.429687 8.429688-1.339844 2.847656 1.089844 4.894531 3.621094 5.375 6.632813s-.683594 6.046875-3.054688 7.96875c-42.039062 33.902344-66.449218 85.027344-66.386718 139.035156 0 2.464844.082031 4.921875.167968 7.386719zm0 0"/><path d="m271.273438 442.851562c-4.714844.1875-8.683594-3.484374-8.871094-8.195312-.1875-4.714844 3.484375-8.683594 8.195312-8.871094 74.195313-6.242187 136.863282-57.566406 157.601563-129.074218.84375-2.933594 3.183593-5.191407 6.144531-5.929688 2.957031-.734375 6.085938.160156 8.203125 2.355469 2.117187 2.195312 2.90625 5.351562 2.0625 8.285156-22.714844 78.335937-91.367187 134.566406-172.644531 141.40625zm0 0"/><path d="m443.570312 263.523438h-.144531c-4.65625-.078126-8.390625-3.875-8.390625-8.53125v-.042969c.085938-2.757813.171875-5.214844.171875-7.679688.0625-54.007812-24.351562-105.132812-66.390625-139.035156-2.367187-1.921875-3.53125-4.957031-3.054687-7.96875.480469-3.011719 2.53125-5.542969 5.378906-6.632813 2.847656-1.089843 6.058594-.578124 8.429687 1.339844 46.046876 37.136719 72.78125 93.140625 72.703126 152.296875 0 2.652344-.085938 5.316407-.179688 7.96875-.132812 4.613281-3.910156 8.285157-8.523438 8.285157zm0 0"/><path d="m240.058594 442.851562h-.734375c-80.972657-7.210937-149.226563-63.363281-171.902344-141.429687-.84375-2.933594-.058594-6.089844 2.0625-8.285156 2.117187-2.195313 5.242187-3.089844 8.203125-2.355469 2.960938.738281 5.300781 2.996094 6.140625 5.929688 20.710937 71.261718 83.019531 122.519531 156.9375 129.101562 4.714844.195312 8.375 4.171875 8.179687 8.886719-.195312 4.710937-4.175781 8.375-8.886718 8.179687zm0 0"/></g><path d="m484.648438 274.632812c10.167968-81.382812-24.128907-161.960937-89.828126-211.054687l15.988282-52.050781c1.089844-3.523438-.207032-7.34375-3.210938-9.476563-3.003906-2.1367185-7.039062-2.097656-10.003906.089844l-47.335938 34.875c-59.964843-26.863281-128.539062-26.863281-188.5 0l-47.335937-34.839844c-2.964844-2.1874998-7-2.2265622-10.007813-.09375-3.003906 2.136719-4.296874 5.957031-3.210937 9.480469l15.992187 52.050781c-65.6875 49.085938-99.984374 129.648438-89.832031 211.019531l-23.890625 17.582032c-2.96875 2.1875-4.195312 6.03125-3.042968 9.535156 1.152343 3.503906 4.421874 5.867188 8.109374 5.867188h25.3125c26.042969 96.117187 110.988282 164.558593 210.449219 169.554687l3.546875 11.539063c1.101563 3.582031 4.410156 6.023437 8.160156 6.023437h.050782c3.765625-.023437 7.070312-2.511719 8.132812-6.125l3.359375-11.425781c99.546875-4.878906 184.601563-73.359375 210.613281-169.566406h25.308594c3.664063-.027344 6.898438-2.386719 8.046875-5.863282 1.144531-3.480468-.054687-7.300781-2.984375-9.496094zm-15.308594-27.363281c0 5.195313-.214844 10.425781-.597656 15.65625l-16.546876-12.175781c0-1.160156.078126-2.320312.078126-3.480469.054687-57.097656-24.890626-111.351562-68.265626-148.480469l5.476563-17.828124c50.417969 40.492187 79.78125 101.644531 79.855469 166.308593zm-213.332032-213.335937c26.792969-.054688 53.355469 4.976562 78.273438 14.832031l-16.785156 12.347656c-39.925782-13.226562-83.054688-13.226562-122.980469 0l-16.785156-12.347656c24.917969-9.855469 51.480469-14.886719 78.277343-14.832031zm44.371094 39.800781-44.371094 32.640625-44.375-32.640625c29.117188-7.4375 59.632813-7.4375 88.746094 0zm-58.769531 43.230469-54.816406 40.34375c-2.558594 1.769531-3.957031 4.789062-3.640625 7.882812.3125 3.09375 2.28125 5.773438 5.144531 6.992188s6.160156.785156 8.609375-1.136719l59.101562-43.484375 59.101563 43.519531c2.445313 1.917969 5.746094 2.355469 8.605469 1.136719 2.863281-1.21875 4.835937-3.898438 5.148437-6.992188.3125-3.097656-1.082031-6.117187-3.644531-7.882812l-54.816406-40.378906 116.503906-85.734375-20.886719 67.949219v.105468l-49.160156 159.863282c-.898437 2.914062-.171875 6.085937 1.90625 8.316406 2.074219 2.234375 5.183594 3.191406 8.15625 2.511718 2.972656-.683593 5.355469-2.898437 6.25-5.8125l45.3125-147.457031c33.890625 31.570313 54.144531 75.097657 56.464844 121.355469l-45.566407-33.539062c-3.792968-2.601563-8.96875-1.730469-11.699218 1.972656-2.730469 3.703125-2.03125 8.90625 1.578125 11.757812l98.21875 72.277344h-239.785157c-4.714843 0-8.535156 3.820312-8.535156 8.535156 0 4.710938 3.820313 8.53125 8.535156 8.53125h186.878907c-22.304688 61.828125-76.542969 106.574219-141.484375 116.71875l25.097656-85.410156c.898438-2.933594.144531-6.128906-1.964844-8.355469-2.113281-2.230469-5.257812-3.152343-8.238281-2.417969-2.984375.734376-5.339844 3.015626-6.171875 5.972657l-35.984375 122.453125-109.808594-357.265625v-.121094l-20.914062-67.941406zm-86.425781 173.585937h-120.652344l107.386719-79.027343c3.695312-2.828126 4.445312-8.09375 1.683593-11.839844-2.757812-3.746094-8.011718-4.589844-11.804687-1.898438l-54.734375 40.277344c2.324219-46.257812 22.578125-89.785156 56.464844-121.355469l94.507812 307.527344c-64.566406-10.476563-118.386718-55.109375-140.628906-116.617187h67.777344c4.714844 0 8.535156-3.820313 8.535156-8.535157 0-4.710937-3.820312-8.53125-8.535156-8.53125zm-112.511719-43.28125c.074219-64.667969 29.4375-125.820312 79.855469-166.316406l5.480468 17.835937c-43.378906 37.125-68.324218 91.382813-68.269531 148.480469 0 1.195313.054688 2.3125.078125 3.480469l-16.546875 12.175781c-.382812-5.230469-.597656-10.460937-.597656-15.65625zm8.902344 60.347657h17.875c23.847656 72.945312 87.867187 125.417968 164.070312 134.484374l5.421875 17.648438c-87.941406-7.003906-162.453125-67.507812-187.367187-152.132812zm221.097656 152.132812 5.1875-17.648438c76.476563-8.773437 140.820313-61.324218 164.695313-134.503906h17.917968c-24.917968 84.804688-99.671875 145.367188-187.800781 152.152344zm0 0"/></svg>