<svg height="512pt" viewBox="-35 0 512 512" width="512pt" xmlns="http://www.w3.org/2000/svg"><path d="m433.632812 83.589844h-69.273437v-37.609375h31.664063c20.773437 0 37.609374 16.839843 37.609374 37.609375zm0 0" fill="#c6c5ca"/><path d="m321.992188 146.324219 34.789062-60.023438c4.804688-7.859375 7.578125-17.097656 7.578125-26.984375 0-28.617187-23.203125-51.816406-51.820313-51.816406-19.40625 0-36.3125 10.675781-45.191406 26.46875l-79.359375 136.914062c-.234375.390626-.480469.761719-.710937 1.15625l-177.023438 304.992188c21.695313 12.578125 49.476563 5.183594 62.054688-16.511719l75.304687-129.511719 6.066407 3.515626c-9.707032 16.746093-4 38.1875 12.746093 47.894531 16.742188 9.703125 38.183594 4 47.890625-12.746094 1.050782-1.8125 1.910156-3.679687 2.605469-5.582031 31.984375 4.363281 64.90625-10.488282 82.097656-40.148438l42.203125-72.808594c20.53125-35.417968 11.597656-79.8125-19.230468-104.808593zm0 0" fill="#787680"/><path d="m283.789062 458.824219h-20.59375l-46.640624-80.785157-28.335938 16.359376 37.25 64.523437c-19.523438 1.316406-35.007812 17.613281-35.007812 37.46875v8.109375h20.304687c4.671875 0 8.457031-3.785156 8.457031-8.457031s3.785156-8.457031 8.457032-8.457031h56.453124c4.671876 0 8.457032 3.785156 8.457032 8.457031s3.785156 8.457031 8.457031 8.457031h20.304687v-8.109375c0-20.746094-16.816406-37.566406-37.5625-37.566406zm0 0" fill="#c6c5ca"/><path d="m108.332031 308.238281 78.945313-136.199219c25.152344-43.390624 80.714844-58.175781 124.109375-33.023437l-61.253907 105.671875c-25.148437 43.390625-98.410156 88.703125-141.800781 63.550781zm0 0" fill="#787680"/><path d="m364.359375 45.980469h30v37.609375h-30zm0 0" fill="#898890"/><path d="m40.253906 477.03125 177.023438-304.992188c.230468-.394531.480468-.765624.710937-1.15625l79.363281-136.914062c6.492188-11.546875 17.277344-20.359375 30.191407-24.261719-4.746094-1.433593-9.785157-2.207031-15.003907-2.207031-19.40625 0-36.3125 10.675781-45.1875 26.46875l-79.363281 136.914062c-.230469.390626-.480469.761719-.710937 1.15625l-177.023438 304.992188c11.925782 6.914062 25.691406 7.792969 37.757813 3.578125-2.644531-.929687-5.242188-2.121094-7.757813-3.578125zm0 0" fill="#57565c"/><path d="m255.46875 458.921875-37.25-64.523437 5.835938-3.371094-7.5-12.988282-28.335938 16.359376 37.25 64.523437c-19.523438 1.316406-35.007812 17.613281-35.007812 37.46875v8.109375h20.304687c4.671875 0 8.457031-3.785156 8.457031-8.457031 0-1.855469.597656-3.570313 1.613282-4.964844 2.46875-17.378906 16.882812-30.957031 34.632812-32.15625zm0 0" fill="#898890"/><path d="m138.332031 308.238281 78.945313-136.199219c14.132812-24.375 37.859375-39.722656 63.636718-44.035156-36.257812-6.09375-74.109374 10.351563-93.636718 44.035156l-78.945313 136.199219c12.882813 7.46875 28.398438 8.726563 44.507813 5.664063-5.105469-1.171875-9.96875-3.03125-14.507813-5.664063zm0 0" fill="#57565c"/><path d="m396.023438 38.480469h-27.941407c-8.453125-22.457031-30.160156-38.480469-55.542969-38.480469-21.402343 0-41.222656 11.609375-51.679687 30.210938l-79.316406 136.835937-.210938.34375c-.183593.292969-.367187.585937-.539062.882813l-180.792969 311.484374c7.5625 4.382813 17.089844 10.886719 32.9375 10.886719 18.265625 0 36.054688-9.453125 45.851562-26.355469l62.851563-108.085937c1.324219 13.367187 8.785156 25.609375 21.023437 32.703125 20.929688 12.136719 47.613282 4.394531 58.875-16.792969 33.964844 2.496094 66.554688-14.363281 83.96875-44.40625l42.203126-72.808593c21.082031-36.371094 13.84375-81.996094-16.132813-110.152344l31.097656-53.65625h78.457031v-7.5c0-24.871094-20.234374-45.109375-45.109374-45.109375zm-83.738282 109.632812 4.980469 4.039063c28.644531 23.21875 35.992187 63.269531 17.46875 95.222656l-42.203125 72.808594c-15.222656 26.261718-44.503906 40.582031-74.597656 36.476562l-5.984375-.816406c-2.207031 6.035156-2.648438 7.527344-4.125 10.070312-7.632813 13.171876-24.46875 17.652344-37.640625 10.015626-13.171875-7.632813-17.65625-24.46875-10.019532-37.644532l3.761719-6.488281-16.414062-9.511719c42.054687-5.132812 89.148437-39.402344 109.109375-73.835937l51.546875-88.929688-12.980469-7.523437-51.546875 88.929687c-15.488281 26.722657-50.378906 54.171875-83.636719 63.609375l61.003906-105.246094-12.976562-7.519531-67.296875 116.101563c-4.144531.210937-8.195313.054687-12.101563-.511719l-2.15625 14.84375c5.683594.828125 11.496094.929687 17.316407.457031l-77.976563 134.097656c-4.382812 7.5625-10.996094 13.042969-18.527344 16.09375l65.96875-113.660156-12.972656-7.527344-71.808594 123.71875c-2.554687-.308593-5.097656-.875-7.59375-1.722656l172.882813-297.855468c.085937-.152344.179687-.296876.269531-.441407.128906-.207031.257813-.410156.382813-.617187l79.46875-137.101563c7.851562-13.96875 22.664062-22.644531 38.652343-22.644531 24.4375 0 44.320313 19.882812 44.320313 44.316406 0 8.164063-2.242187 16.144532-6.476563 23.074219zm59.574219-72.023437v-22.609375h24.164063c14.011718 0 25.820312 9.625 29.164062 22.609375zm0 0"/><path d="m230.441406 125.863281 5.394532 13.996094c21.367187-8.238281 45.414062-7.300781 65.972656 2.566406l6.488281-13.523437c-24.265625-11.648438-52.644531-12.753906-77.855469-3.039063zm0 0"/><path d="m283.789062 451.324219h-16.261718l-37.40625-64.789063-12.992188 7.5 41.738282 72.289063h24.921874c16.578126 0 30.0625 13.488281 30.0625 30.066406v.609375h-12.804687c-.527344 0-.957031-.429688-.957031-.957031 0-8.796875-7.15625-15.953125-15.957032-15.953125h-56.453124c-8.796876 0-15.957032 7.15625-15.957032 15.953125 0 .527343-.429687.957031-.957031.957031h-12.804687v-.609375c0-15.753906 12.304687-28.925781 28.011718-29.984375l12.007813-.8125-36.550781-63.304688-12.988282 7.5 25.324219 43.859376c-17.949219 6.011718-30.804687 23.027343-30.804687 42.742187v15.609375h27.804687c8.800781 0 15.957031-7.15625 15.957031-15.957031 0-.527344.429688-.953125.957032-.953125h56.453124c.527344 0 .957032.425781.957032.953125 0 8.800781 7.160156 15.957031 15.957031 15.957031h27.808594v-15.609375c-.003907-24.851563-20.21875-45.066406-45.066407-45.066406zm0 0"/><g fill="#fff"><path d="m283.878906 315.167969-12.976562-7.523438 37.46875-64.640625 12.976562 7.519532zm42.519532-73.359375-13.050782-7.398438c2.144532-3.78125 3.78125-7.832031 4.867188-12.042968l14.523437 3.75c-1.414062 5.484374-3.546875 10.761718-6.339843 15.691406zm8.195312-26.835938-14.953125-1.160156c.097656-1.261719.144531-2.542969.144531-3.816406 0-3.0625-.285156-6.140625-.851562-9.148438l14.738281-2.78125c.738281 3.921875 1.113281 7.9375 1.113281 11.929688 0 1.65625-.0625 3.328125-.191406 4.976562zm0 0"/><path d="m317.875 118.527344-12.976562-7.519532 24.15625-41.660156c.84375-1.378906 1.511718-2.875 1.980468-4.433594l14.363282 4.324219c-.839844 2.789063-2.035157 5.460938-3.546876 7.9375l-.109374.175781zm13.921875-60.746094c-.285156-3.605469-1.578125-7.050781-3.75-9.964844l12.035156-8.957031c3.855469 5.183594 6.160157 11.316406 6.667969 17.742187zm-9.023437-14.839844c-3.0625-1.925781-6.601563-2.941406-10.234376-2.941406v-15c6.457032 0 12.757813 1.8125 18.214844 5.238281zm0 0"/><path d="m234.992188 235.910156-12.976563-7.523437 21.175781-36.53125 12.980469 7.523437zm26.191406-45.183594-12.976563-7.523437 7.523438-12.976563 12.976562 7.519532zm12.539062-21.628906-12.980468-7.523437 7.523437-12.976563 12.976563 7.519532zm0 0"/></g></svg>