<svg height="512pt" viewBox="-98 0 512 512" width="512pt" xmlns="http://www.w3.org/2000/svg"><path d="m252.34375 504.5h-160.5625c-32.914062-32.914062-51.367188-51.367188-84.28125-84.28125v-357.441406c21.589844-21.585938 33.691406-33.6875 55.277344-55.277344h160.5625c32.914062 32.914062 51.367187 51.367188 84.28125 84.28125v357.441406c-21.585938 21.585938-33.691406 33.6875-55.277344 55.277344zm0 0" fill="#c6c5ca"/><path d="m260.394531 172.394531-30.367187-30.367187-50.992188 50.996094v-62.023438h-42.945312v62.023438l-50.996094-50.996094-30.367188 30.367187 81.363282 81.363281v127.242188h42.945312v-127.242188zm0 0" fill="#787680"/><path d="m37.5 420.21875v-357.441406c21.589844-21.585938 33.691406-33.6875 55.277344-55.277344h-30c-21.585938 21.589844-33.6875 33.691406-55.277344 55.277344v357.441406l84.28125 84.28125h30c-32.914062-32.914062-51.367188-51.367188-84.28125-84.28125zm0 0" fill="#898890"/><path d="m84.726562 172.394531 15.367188-15.367187-15-15-30.367188 30.367187 81.363282 81.363281v127.242188h30v-127.242188zm0 0" fill="#57565c"/><path d="m226.445312 0h-166.773437l-59.671875 59.671875v183.328125h15v-177.113281l47.777344-47.78125 31.339844 31.339843 10.605468-10.609374-23.835937-23.835938h139.347656l76.78125 76.78125-31.167969 31.167969 10.605469 10.609375 23.667969-23.667969v336.222656l-50.882813 50.886719h-154.347656l-76.785156-76.78125 33.914062-33.914062-10.605469-10.609376-26.414062 26.414063v-139.109375h-15v160.324219l88.675781 88.675781h166.773438l59.671875-59.671875v-363.652344zm0 0"/><path d="m128.589844 123.5v51.414062l-43.496094-43.492187-40.972656 40.972656 84.46875 84.46875v131.636719h57.945312v-89.496094h-15v74.496094h-27.945312v-122.851562l-78.257813-78.253907 19.761719-19.757812 58.496094 58.492187v-72.628906h27.945312v72.628906l58.492188-58.492187 19.761718 19.757812-78.253906 78.253907v28.355468h15v-22.140625l84.464844-84.46875-40.972656-40.972656-43.492188 43.492187v-51.414062zm0 0"/><g fill="#fff"><path d="m247.289062 484.804688-10.605468-10.609376 38.4375-38.433593v-113.761719h15v119.972656zm42.832032-172.804688h-15v-15h15zm0-25h-15v-15h15zm0 0"/><path d="m207.226562 40h-34.664062v-15h34.664062zm-44.664062 0h-15v-15h15zm-25 0h-15v-15h15zm0 0"/><path d="m165.058594 362.332031h-15v-49.332031h15zm0-59.332031h-15v-15h15zm0-25h-15v-15h15zm0 0"/></g></svg>