<svg xmlns="http://www.w3.org/2000/svg" version="1.0" width="256" height="256" viewBox="0 0 499 501"><path style="stroke:#000;stroke-width:6.84960938" d="M75.137 76.138C28.564 122.712 2.914 184.636 2.914 250.501c0 65.864 25.65 127.79 72.223 174.363 46.573 46.574 108.498 72.222 174.363 72.222s127.788-25.65 174.363-72.222c46.575-46.574 72.223-108.499 72.223-174.363 0-65.865-25.65-127.79-72.223-174.364C377.288 29.564 315.365 3.914 249.5 3.914S121.71 29.564 75.137 76.138zM30.031 250.5c0-121.015 98.453-219.469 219.469-219.469 121.015 0 219.469 98.454 219.469 219.47s-98.454 219.468-219.47 219.468c-121.015 0-219.468-98.452-219.468-219.469z"/><g style="stroke:#000;stroke-width:7.15271282"><path d="M172.837 254.176c6.618 4.809 13.456 9.778 20.435 14.847L249.5 95.975l26.946 82.926h25.26L249.5 18.233l-76.663 235.943zM165.03 278.2l-52.204 160.664L249.5 339.57l20.435-14.847 43.599-31.676-7.805-24.024-56.229 40.852-20.435 14.848-70.544 51.252c4.867-14.975 14.904-45.866 26.946-82.928"/><path d="M229.065 324.722l20.435-14.848c-18.768-13.636-133.912-97.292-147.208-106.95h87.197l7.806-24.023H28.355l200.71 145.82zM309.51 202.924h-25.26l56.23 173.05c-8.998-6.539-70.545-51.253-70.545-51.253L249.5 339.568l136.675 99.296-76.664-235.94z"/><path d="M333.969 278.199c49.095-35.667 136.675-99.298 136.675-99.298H222.555l-7.805 24.023h181.957c-12.74 9.255-39.015 28.348-70.543 51.252l7.805 24.023z"/></g></svg>
