<svg height="512" viewBox="0 0 16 16" width="512" xmlns="http://www.w3.org/2000/svg"><path d="m11.5 11c-.313477 0-.619141.0576172-.908691.170898l.728516 1.8623c.304688-.116211.680176.12793.680176.466797 0 .275879-.224121.5-.5.5h-2.00037l-.0015869-4.46741c.317444-.286011.501953-.686585.501953-1.11316v-1.91943c0-.827148-.672852-1.5-1.5-1.5h-1.5v-1.0918c.581238-.206604 1-.756042 1-1.4082 0-1.09375-1.03125-2.28125-1.5-2.5 0 1.5-1.5 1.25-1.5 2.5 0 .652161.418762 1.2016 1 1.4082v1.0918h-1.50098c-.826172 0-1.49951.672363-1.5 1.51367-.0008545.442688.196472.827454.500977 1.10962v6.37671h-3.5v2h11.5c1.37842 0 2.5-1.12158 2.5-2.5s-1.12158-2.5-2.5-2.5zm-7.00098-5h4.00098c.275879 0 .5.224121.5.5v1.91943c0 .148438-.0664062.289062-.182129.38623-.0668945.0566406-.208496.144043-.405762.109863-.805176-.144043-1.1709-.44873-1.59424-.801758-.502441-.418457-1.07129-.893066-2.30908-1.05566-.295899-.0390624-.510254-.26709-.509766-.558594 0-.275391.224609-.499512.5-.499512z" transform="translate(1)"/></svg>