<svg height="506pt" viewBox="-20 0 506 506.60907" width="506pt" xmlns="http://www.w3.org/2000/svg"><path d="m393.449219 460.800781c5.046875 0 9.140625-4.09375 9.140625-9.144531v-54.855469c0-5.050781 4.09375-9.144531 9.144531-9.144531 5.046875 0 9.140625 4.09375 9.140625 9.144531 0 5.046875 4.09375 9.140625 9.144531 9.140625 5.046875 0 9.140625-4.09375 9.140625-9.140625v-36.417969c-23.875 6.210938-48.46875 9.234376-73.140625 8.988282-6.117187 0-12.226562-.210938-18.285156-.546875v46.261719c0 5.050781 4.09375 9.144531 9.140625 9.144531 5.050781 0 9.144531-4.09375 9.144531-9.144531 0-5.050782 4.09375-9.144532 9.140625-9.144532 5.050782 0 9.144532 4.09375 9.144532 9.144532v36.570312c0 5.050781 4.09375 9.144531 9.144531 9.144531zm0 0"/><path d="m357.195312 248.933594c-.15625.515625-.261718 1.042968-.320312 1.582031v45.867187c-59.207031 1.601563-91.425781 18.414063-91.425781 27.273438 0 9.308594 35.5 27.429688 100.570312 27.429688 65.070313 0 100.570313-18.121094 100.570313-27.429688 0-8.859375-32.21875-25.664062-91.429688-27.273438v-45.867187c-.054687-.539063-.164062-1.066406-.320312-1.582031 11.09375-3.75 18.570312-14.140625 18.609375-25.847656 0-9.828126-14.347657-32.285157-27.429688-49.371094-13.085937 17.078125-27.429687 39.53125-27.429687 49.371094.035156 11.707031 7.515625 22.097656 18.605468 25.847656zm17.964844 65.582031c0 5.046875-4.09375 9.140625-9.140625 9.140625-5.050781 0-9.144531-4.09375-9.144531-9.140625v-18.105469c3.019531-.179687 6.035156-.179687 9.144531-.179687s6.125 0 9.140625.179687zm0 0"/><path d="m128.625 75.21875c-.15625.515625-.261719 1.046875-.320312 1.582031v54.949219c3.015624-.09375 6.035156-.09375 9.144531-.09375 3.105469 0 6.125 0 9.140625.09375v-54.949219c-.054688-.535156-.164063-1.066406-.320313-1.582031 11.09375-3.75 18.570313-14.140625 18.605469-25.847656 0-9.828125-14.34375-32.28125-27.425781-49.371094-13.085938 17.105469-27.429688 39.5625-27.429688 49.371094.035157 11.707031 7.515625 22.097656 18.605469 25.847656zm0 0"/><path d="m274.589844 293.484375v-111.167969c-17.332032 8.195313-35.84375 13.621094-54.855469 16.082032v61.257812c.078125 8.929688-4.230469 17.328125-11.53125 22.472656-7.300781 5.144532-16.660156 6.375-25.042969 3.292969v47.378906c0 15.148438-12.277344 27.429688-27.425781 27.429688s-27.429687-12.28125-27.429687-27.429688v-10.824219c-2.929688 1.082032-6.019532 1.652344-9.144532 1.679688-15.148437 0-27.425781-12.28125-27.425781-27.425781v-93.386719c-33.71875-2.808594-70.183594-8.96875-91.429687-20.527344v296.769532c0 7.964843 48.0625 27.429687 137.144531 27.429687 38.542969.84375 77-3.953125 114.15625-14.238281-2.808594-3.832032-4.359375-8.441406-4.445313-13.191406v-155.429688c0-12.652344 10.707032-22.726562 27.429688-30.171875zm0 0"/><path d="m457.449219 396.800781c0 15.148438-12.28125 27.429688-27.429688 27.429688-3.121093-.03125-6.214843-.601563-9.144531-1.683594v29.109375c0 15.148438-12.277344 27.429688-27.425781 27.429688-15.148438 0-27.429688-12.28125-27.429688-27.429688v-10.824219c-2.929687 1.082031-6.023437 1.652344-9.144531 1.683594-15.148438 0-27.425781-12.28125-27.425781-27.429687v-47.808594c-22.335938-1.71875-44.097657-7.902344-64-18.183594v129.992188c0 9.308593 35.5 27.429687 100.570312 27.429687 65.070313 0 100.570313-18.121094 100.570313-27.429687v-129.984376c-2.949219 1.765626-6 3.351563-9.140625 4.746094zm0 0"/><path d="m137.449219 186.515625c89.078125 0 137.140625-19.464844 137.140625-27.429687 0-7.679688-44.855469-26.019532-128-27.300782v27.300782c0 5.050781-4.09375 9.144531-9.140625 9.144531-5.050781 0-9.144531-4.09375-9.144531-9.144531v-27.300782c-83.144532 1.28125-128 19.621094-128 27.300782 0 7.964843 48.0625 27.429687 137.144531 27.429687zm0 0"/><path d="m183.160156 259.65625c-.019531 2.382812.925782 4.675781 2.625 6.347656 1.695313 1.789063 4.054688 2.800782 6.519532 2.796875 5.050781 0 9.144531-4.09375 9.144531-9.144531v-58.660156c-21.246094 2.484375-42.613281 3.753906-64 3.804687-8.230469 0-17.527344-.230469-27.429688-.730469v92.160157c0 5.046875 4.09375 9.140625 9.140625 9.140625 5.050782 0 9.144532-4.09375 9.144532-9.140625v-64c0-5.050781 4.09375-9.144531 9.144531-9.144531 5.046875 0 9.140625 4.09375 9.140625 9.144531v100.570312c0 5.046875 4.09375 9.140625 9.144531 9.140625 5.046875 0 9.140625-4.09375 9.140625-9.140625v-91.429687c0-5.050782 4.09375-9.140625 9.144531-9.140625 5.046875 0 9.140625 4.089843 9.140625 9.140625zm0 0"/></svg>