<?xml version="1.0" encoding="iso-8859-1"?>
<!-- Generator: Adobe Illustrator 21.0.0, SVG Export Plug-In . SVG Version: 6.00 Build 0)  -->
<svg version="1.1" id="Capa_1" xmlns="http://www.w3.org/2000/svg" xmlns:xlink="http://www.w3.org/1999/xlink" x="0px" y="0px"
	 viewBox="0 0 512.004 512.004" style="enable-background:new 0 0 512.004 512.004;" xml:space="preserve">
<g>
	<g transform="translate(1)">
		<path style="fill:#4527A0;" d="M502.469,76.292v329.472c-0.04,5.402-2.635,10.466-6.997,13.653l-76.8,55.211
			c-6.017,4.324-14.122,4.324-20.139,0l-2.731-1.963l74.069-53.248c4.362-3.187,6.957-8.251,6.997-13.653V78.084l12.032-8.619
			c2.585-1.889,6.01-2.172,8.87-0.733C500.631,70.171,502.445,73.09,502.469,76.292z"/>
		<path style="fill:#673AB7;" d="M476.869,78.682v338.603c-0.018,5.526-2.604,10.729-6.997,14.08l-61.269,45.568l-1.195,0.853
			c-3.206-0.151-6.294-1.25-8.875-3.157l-83.797-60.331V59.738l81.067,60.245l12.8,9.472L476.869,78.682z"/>
		<g>
			<path style="fill:#00695C;" d="M50.202,8.538v494.933H16.069c-4.713,0-8.533-3.821-8.533-8.533V17.071
				c0-4.713,3.821-8.533,8.533-8.533H50.202z"/>
			<path style="fill:#00695C;" d="M314.735,42.671v426.667c0,18.851-15.282,34.133-34.133,34.133H41.669V8.538h238.933
				C299.453,8.538,314.735,23.82,314.735,42.671z"/>
		</g>
		<path style="fill:#009688;" d="M288.069,34.138v426.667c-0.295,19.146-16.054,34.428-35.2,34.133l-211.2,0.004V0l211.2,0.004
			C272.015-0.29,287.774,14.992,288.069,34.138z"/>
		<path style="fill:#C52828;" d="M246.469,175.62c0,53.845-68.267,140.117-68.267,140.117s-5.205-6.571-12.8-17.323
			c-19.712-27.904-55.467-83.883-55.467-122.795c0.687-31.814,24.039-58.58,55.467-63.573c4.229-0.719,8.51-1.09,12.8-1.109
			C214.902,109.982,245.446,138.922,246.469,175.62z"/>
		<path style="fill:#F44335;" d="M220.869,175.62c0,38.912-35.755,94.891-55.467,122.795
			c-19.712-27.904-55.467-83.883-55.467-122.795c0.687-31.814,24.039-58.58,55.467-63.573
			C196.83,117.04,220.182,143.806,220.869,175.62z"/>
		<circle style="fill:#F4F4F4;" cx="178.202" cy="179.204" r="25.6"/>
		<path style="fill:#6A1B9A;" d="M408.602,127.236v350.638c-0.4,0.011-0.801-0.018-1.195-0.089c-3.206-0.151-6.294-1.25-8.875-3.157
			l-15.531-11.179l-68.267-49.152V59.738L408.602,127.236z"/>
	</g>
	<g>
		<path d="M213.335,179.204c0-18.851-15.282-34.133-34.133-34.133s-34.133,15.282-34.133,34.133s15.282,34.133,34.133,34.133
			S213.335,198.056,213.335,179.204z M162.135,179.204c0-9.426,7.641-17.067,17.067-17.067c9.426,0,17.067,7.641,17.067,17.067
			c0,9.426-7.641,17.067-17.067,17.067C169.776,196.271,162.135,188.63,162.135,179.204z"/>
		<path d="M136.535,307.204c-4.713,0-8.533,3.821-8.533,8.533c0,4.713,3.821,8.533,8.533,8.533h85.333
			c4.713,0,8.533-3.821,8.533-8.533c0-4.713-3.821-8.533-8.533-8.533h-25.6c19.524-27.042,59.733-88.055,59.733-131.593
			c-1.066-41.391-35.406-74.124-76.8-73.207c-41.394-0.916-75.734,31.817-76.8,73.207c0,43.52,40.243,104.55,59.733,131.593H136.535
			z M179.202,119.471c31.972-0.924,58.675,24.173,59.733,56.141c0,40.602-42.871,102.989-59.733,125.952
			c-16.862-22.963-59.733-85.333-59.733-125.952C120.527,143.644,147.23,118.546,179.202,119.471z"/>
		<path d="M256.002,375.471h-153.6c-4.713,0-8.533,3.82-8.533,8.533s3.821,8.533,8.533,8.533h153.6c4.713,0,8.533-3.82,8.533-8.533
			S260.715,375.471,256.002,375.471z"/>
		<path d="M213.335,418.138h-68.267c-4.713,0-8.533,3.82-8.533,8.533s3.82,8.533,8.533,8.533h68.267c4.713,0,8.533-3.82,8.533-8.533
			S218.048,418.138,213.335,418.138z"/>
		<path d="M502.752,61.222c-5.717-2.946-12.605-2.429-17.818,1.34l-75.332,54.204l-85.333-61.397V42.671
			c-0.028-23.552-19.114-42.638-42.667-42.667H8.535c-4.713,0-8.533,3.821-8.533,8.533v494.933c0,4.713,3.821,8.533,8.533,8.533
			h273.067c23.552-0.028,42.638-19.114,42.667-42.667v-38.4l70.315,50.603c8.974,6.458,21.072,6.458,30.046,0l76.8-55.262
			c6.614-4.763,10.545-12.406,10.573-20.557V76.318C512.011,69.945,508.434,64.108,502.752,61.222z M307.202,469.338
			c0,14.138-11.462,25.6-25.6,25.6h-230.4v-42.667c0-4.713-3.821-8.533-8.533-8.533s-8.533,3.82-8.533,8.533v42.667H17.069V17.071
			h17.067v401.067c0,4.713,3.821,8.533,8.533,8.533s8.533-3.82,8.533-8.533V17.071h230.4c14.138,0,25.6,11.462,25.6,25.6V469.338z
			 M494.935,405.722c-0.012,2.671-1.304,5.174-3.473,6.733l-76.8,55.262c-3.025,2.168-7.095,2.168-10.121,0l-80.273-57.762V76.395
			l76.8,55.253v303.556c0,4.713,3.82,8.533,8.533,8.533s8.533-3.821,8.533-8.533V131.648l76.8-55.33V405.722z"/>
	</g>
</g>
<g>
</g>
<g>
</g>
<g>
</g>
<g>
</g>
<g>
</g>
<g>
</g>
<g>
</g>
<g>
</g>
<g>
</g>
<g>
</g>
<g>
</g>
<g>
</g>
<g>
</g>
<g>
</g>
<g>
</g>
</svg>
