<svg height="511pt" viewBox="-59 0 511 511.88009" width="511pt" xmlns="http://www.w3.org/2000/svg"><path d="m213.773438 158.601562v-42.753906h-34.136719v49.578125zm0 0" fill="#91562d"/><path d="m369.847656 415.539062-19.542968 19.539063-34.132813 34.136719-12.375 24.660156c-2.878906 5.800781-8.796875 9.46875-15.273437 9.472656h-183.636719c-6.476563-.003906-12.394531-3.671875-15.273438-9.472656l-12.375-24.660156-34.132812-34.136719-19.542969-19.539063c-2.449219-2.429687-3.195312-6.097656-1.886719-9.292968 1.308594-3.191406 4.410157-5.285156 7.863281-5.300782h334.335938c3.449219.015626 6.550781 2.109376 7.859375 5.300782 1.308594 3.195312.5625 6.863281-1.886719 9.292968zm0 0" fill="#283593"/><path d="m344.246094 415.539062-53.675782 53.675782-12.371093 24.660156c-2.882813 5.800781-8.800781 9.46875-15.277344 9.472656h-158.035156c-6.476563-.003906-12.394531-3.671875-15.273438-9.472656l-12.375-24.660156-34.132812-34.136719-19.542969-19.539063c-2.449219-2.429687-3.195312-6.097656-1.886719-9.292968 1.308594-3.191406 4.410157-5.285156 7.863281-5.300782h308.734376c3.449218.015626 6.554687 2.109376 7.859374 5.300782 1.308594 3.195312.5625 6.863281-1.886718 9.292968zm0 0" fill="#3f51b5"/><path d="m369.847656 415.539062-19.542968 19.539063h-307.199219l-19.542969-19.539063c-2.449219-2.429687-3.195312-6.097656-1.886719-9.292968 1.308594-3.191406 4.410157-5.285156 7.863281-5.300782h334.335938c3.449219.015626 6.550781 2.109376 7.859375 5.300782 1.308594 3.195312.5625 6.863281-1.886719 9.292968zm0 0" fill="#0377bc"/><path d="m344.246094 415.539062-19.539063 19.539063h-281.601562l-19.542969-19.539063c-2.449219-2.429687-3.195312-6.097656-1.886719-9.292968 1.308594-3.191406 4.410157-5.285156 7.863281-5.300782h308.734376c3.449218.015626 6.554687 2.109376 7.859374 5.300782 1.308594 3.195312.5625 6.863281-1.886718 9.292968zm0 0" fill="#02a9f4"/><path d="m350.304688 435.078125-34.132813 34.136719h-238.933594l-34.132812-34.136719zm0 0" fill="#283593"/><path d="m316.171875 435.078125-34.132813 34.136719h-204.800781l-34.132812-34.136719zm0 0" fill="#3f51b5"/><path d="m128.4375 281.480469c-.027344 9.414062-7.652344 17.039062-17.066406 17.066406" fill="#cc66a1"/><path d="m316.171875 162.011719v42.667969c-.070313 9.398437-7.667969 17-17.066406 17.066406-9.21875-.097656-16.734375-7.425782-17.066407-16.640625v195.839843h-170.667968v-102.398437c-9.398438-.070313-16.996094-7.667969-17.066406-17.066406v-85.332031c.027343-9.417969 7.652343-17.042969 17.066406-17.070313l157.441406-31.484375c3.441406-.714844 6.914062-1.257812 10.410156-1.625 5.40625-.683594 10.847656-1.023438 16.296875-1.023438h3.585938c9.414062.027344 17.039062 7.652344 17.066406 17.066407zm0 0" fill="#6a1b9a"/><path d="m290.570312 162.011719v42.667969c.035157 4.128906-1.488281 8.121093-4.265624 11.179687-.253907.253906-.511719.597656-.765626.851563-1.03125 1.074218-2.210937 1.996093-3.5 2.730468-5.277343 3.0625-11.785156 3.074219-17.070312.027344s-8.539062-8.6875-8.53125-14.789062v196.265624h-145.066406v-102.398437c-9.398438-.070313-16.996094-7.667969-17.066406-17.066406v-85.332031c.027343-9.417969 7.652343-17.042969 17.066406-17.070313l157.441406-31.484375c3.441406-.714844 6.914062-1.257812 10.410156-1.625 6.78125 2.425781 11.320313 8.839844 11.347656 16.042969zm0 0" fill="#9d27b0"/><path d="m239.371094 76.679688c-.007813 23.5625-19.105469 42.660156-42.664063 42.667968-4.335937-.015625-8.644531-.648437-12.800781-1.878906-17.785156-5.628906-29.871094-22.132812-29.867188-40.789062 0-15.019532 17.320313-38.570313 29.867188-53.757813 7.167969-8.621094 12.800781-14.507813 12.800781-14.507813s42.664063 44.714844 42.664063 68.265626zm0 0" fill="#fec108"/><path d="m213.773438 76.679688c0 18.65625-12.085938 35.160156-29.867188 40.789062-17.785156-5.628906-29.871094-22.132812-29.867188-40.789062 0-15.019532 17.320313-38.570313 29.867188-53.757813 12.542969 15.1875 29.867188 38.738281 29.867188 53.757813zm0 0" fill="#ffdc00"/><path d="m288.558594 511.878906h-183.707032c-9.707031.03125-18.585937-5.457031-22.898437-14.148437l-12.347656-24.699219c-1.324219-2.644531-1.183594-5.789062.375-8.304688 1.554687-2.515624 4.300781-4.046874 7.257812-4.046874h238.933594c2.957031 0 5.703125 1.53125 7.257813 4.046874 1.558593 2.515626 1.699218 5.660157.375 8.304688l-12.347657 24.699219c-4.3125 8.691406-13.191406 14.179687-22.898437 14.148437zm-197.511719-34.132812 6.175781 12.351562c1.4375 2.898438 4.394532 4.726563 7.628906 4.714844h183.707032c3.234375.011719 6.191406-1.816406 7.628906-4.714844l6.175781-12.351562zm0 0"/><path d="m316.171875 477.746094h-238.933594c-2.261719 0-4.433593-.898438-6.03125-2.5l-68.269531-68.265625c-2.4375-2.441407-3.167969-6.109375-1.847656-9.300781 1.320312-3.1875 4.429687-5.265626 7.882812-5.265626h375.464844c3.453125 0 6.5625 2.078126 7.882812 5.265626 1.320313 3.191406.589844 6.859374-1.847656 9.300781l-68.269531 68.265625c-1.597656 1.601562-3.769531 2.5-6.03125 2.5zm-235.398437-17.066406h231.863281l51.203125-51.199219h-334.269532zm0 0"/><path d="m282.039062 409.480469h-170.667968c-4.710938 0-8.53125-3.820313-8.53125-8.535157v-102.398437c0-4.714844 3.820312-8.535156 8.53125-8.535156 4.714844 0 8.535156 3.820312 8.535156 8.535156v93.867187h153.597656v-187.734374c0-4.710938 3.820313-8.53125 8.535156-8.53125 4.710938 0 8.53125 3.820312 8.53125 8.53125v196.265624c0 4.714844-3.820312 8.535157-8.53125 8.535157zm0 0"/><path d="m111.363281 187.613281c-4.375-.015625-8.03125-3.339843-8.460937-7.695312-.429688-4.355469 2.503906-8.328125 6.792968-9.199219l170.667969-34.136719c4.597657-.875 9.046875 2.117188 9.964844 6.710938.917969 4.589843-2.03125 9.0625-6.613281 10.023437l-170.667969 34.132813c-.554687.113281-1.117187.167969-1.683594.164062zm0 0"/><path d="m111.371094 307.078125c-14.132813-.015625-25.582032-11.464844-25.597656-25.597656v-85.332031c.015624-14.132813 11.464843-25.585938 25.597656-25.601563 4.714844 0 8.535156 3.820313 8.535156 8.53125 0 4.714844-3.820312 8.535156-8.535156 8.535156-4.710938.003907-8.527344 3.824219-8.53125 8.535157v85.332031c0 4.710937 3.820312 8.53125 8.53125 8.53125 4.714844 0 8.535156-3.820313 8.535156-8.53125 0-4.714844 3.820312-8.535157 8.53125-8.535157 4.714844 0 8.535156 3.820313 8.535156 8.535157-.015625 14.132812-11.46875 25.582031-25.601562 25.597656zm0 0"/><path d="m299.105469 230.28125c-14.132813-.015625-25.585938-11.46875-25.601563-25.601562 0-4.710938 3.820313-8.53125 8.535156-8.53125 4.710938 0 8.53125 3.820312 8.53125 8.53125 0 4.714843 3.820313 8.535156 8.535157 8.535156 4.710937 0 8.53125-3.820313 8.53125-8.535156v-42.667969c-.003907-4.710938-3.820313-8.527344-8.53125-8.53125h-17.066407c-4.714843 0-8.535156-3.820313-8.535156-8.535157 0-4.710937 3.820313-8.53125 8.535156-8.53125h17.066407c14.132812.015626 25.585937 11.46875 25.601562 25.597657v42.667969c-.015625 14.132812-11.46875 25.585937-25.601562 25.601562zm0 0"/><path d="m230.839844 366.8125c-14.132813-.015625-25.585938-11.46875-25.601563-25.597656v-68.269532c0-4.710937 3.820313-8.53125 8.535157-8.53125 4.710937 0 8.53125 3.820313 8.53125 8.53125v68.269532c0 4.710937 3.820312 8.53125 8.535156 8.53125 4.710937 0 8.53125-3.820313 8.53125-8.53125v-25.601563c0-4.710937 3.820312-8.535156 8.535156-8.535156 4.710938 0 8.53125 3.824219 8.53125 8.535156v25.601563c-.015625 14.128906-11.46875 25.582031-25.597656 25.597656zm0 0"/><path d="m196.707031 315.613281c-14.132812-.015625-25.585937-11.46875-25.601562-25.601562v-68.265625c0-4.710938 3.820312-8.53125 8.53125-8.53125 4.714843 0 8.535156 3.820312 8.535156 8.53125v68.265625c0 4.714843 3.820313 8.535156 8.535156 8.535156 4.710938 0 8.53125-3.820313 8.53125-8.535156 0-4.710938 3.820313-8.53125 8.535157-8.53125 4.710937 0 8.53125 3.820312 8.53125 8.53125-.015626 14.132812-11.46875 25.585937-25.597657 25.601562zm0 0"/><path d="m196.707031 127.878906c-28.265625-.03125-51.171875-22.933594-51.203125-51.199218 0-26.222657 40.417969-69.332032 45.03125-74.15625 3.425782-3.363282 8.914063-3.363282 12.339844 0 4.613281 4.824218 45.03125 47.933593 45.03125 74.15625-.03125 28.265624-22.9375 51.167968-51.199219 51.199218zm0-106.835937c-15.175781 17.144531-34.136719 42.804687-34.136719 55.636719 0 18.851562 15.285157 34.132812 34.136719 34.132812 18.847657 0 34.132813-15.28125 34.132813-34.132812 0-12.851563-18.957032-38.5-34.128906-55.636719zm0 0"/><path d="m179.636719 173.960938c-4.710938 0-8.53125-3.820313-8.53125-8.535157v-49.578125c0-4.710937 3.820312-8.53125 8.53125-8.53125 4.714843 0 8.535156 3.820313 8.535156 8.53125v49.578125c0 4.714844-3.820313 8.535157-8.535156 8.535157zm0 0"/><path d="m213.773438 167.132812c-4.714844 0-8.535157-3.820312-8.535157-8.53125v-42.753906c0-4.710937 3.820313-8.53125 8.535157-8.53125 4.710937 0 8.53125 3.820313 8.53125 8.53125v42.753906c0 4.710938-3.820313 8.53125-8.53125 8.53125zm0 0"/><path d="m145.503906 443.613281h-102.398437c-4.714844 0-8.535157-3.820312-8.535157-8.535156 0-4.710937 3.820313-8.53125 8.535157-8.53125h102.398437c4.714844 0 8.535156 3.820313 8.535156 8.53125 0 4.714844-3.820312 8.535156-8.535156 8.535156zm0 0"/><path d="m350.304688 443.613281h-170.667969c-4.710938 0-8.53125-3.820312-8.53125-8.535156 0-4.710937 3.820312-8.53125 8.53125-8.53125h170.667969c4.714843 0 8.535156 3.820313 8.535156 8.53125 0 4.714844-3.820313 8.535156-8.535156 8.535156zm0 0"/><path d="m196.707031 93.746094c-4.714843 0-8.535156-3.820313-8.535156-8.53125v-8.535156c0-4.710938 3.820313-8.53125 8.535156-8.53125 4.710938 0 8.53125 3.820312 8.53125 8.53125v8.535156c0 4.710937-3.820312 8.53125-8.53125 8.53125zm0 0"/></svg>