<svg height="512" viewBox="0 0 60 47" width="512" xmlns="http://www.w3.org/2000/svg"><g id="Page-1" fill="none" fill-rule="evenodd"><g id="012---Messaging" fill-rule="nonzero"><path id="Shape" d="m57.42 44.05c.1100781.3660753.0018282.7628767-.2789 1.0223377-.2807283.2594609-.6848119.3361799-1.0411.1976623l-8.47-3.27c-3.383178 1.339114-6.9914845 2.0180051-10.63 2-10.2 0-18.78-5-21.27-11.9-.4834542-1.3128583-.7306033-2.7009559-.73-4.1 0-8.84 9.85-16 22-16 2.451634-.0085075 4.8944517.2939046 7.27.9 8.58 2.17 14.73 8.1 14.73 15.1-.0608079 3.338154-1.3910068 6.5277708-3.72 8.92z" fill="#02a9f4"/><path id="Shape" d="m55.28 36.92c2.3289932-2.3922292 3.6591921-5.581846 3.72-8.92 0-7-6.15-12.93-14.73-15.1-2.3755483-.6060954-4.818366-.9085075-7.27-.9-.52 0-1 0-1.55-.0001746 1.9643038.0870709 3.9145119.375246 5.82.8601746 8.58 2.21 14.73 8.14 14.73 15.14-.0608079 3.338154-1.3910068 6.5277708-3.72 8.92l2.14 7.13c.0552966.1859767.0552966.3840233 0 .57l1.68.65c.3562881.1385176.7603717.0617986 1.0411-.1976623.2807282-.259461.3889781-.6562624.2789-1.0223377z" fill="#0377bc"/><path id="Shape" d="m44.27 12.9c-2.3755483-.6060954-4.818366-.9085075-7.27-.9-12.15 0-22 7.16-22 16-.0006033 1.3990441.2465458 2.7871417.73 4.1-1.144208-.2881171-2.2669313-.6556753-3.36-1.1l-8.47 3.27c-.35628809.1385176-.76037173.0617986-1.04109996-.1976623-.28072823-.259461-.38897811-.6562624-.27890004-1.0223377l2.14-7.13c-2.32899318-2.3922292-3.65919214-5.581846-3.72-8.92 0-8.84 9.85-16 22-16 10.2 0 18.78 5.05 21.27 11.9z" fill="#9d27b0"/><path id="Shape" d="m41 12.27c1.1012967.1463984 2.1931419.3567539 3.27.63-2.49-6.85-11.07-11.9-21.27-11.9-.53 0-1 0-1.56 0 9.25.48 16.92 5.07 19.56 11.27z" fill="#6a1b9a"/><path id="Shape" d="m6 18c-.48276076.0097357-.90352637-.3268768-1-.8-1.13-5.63 4.24-8.92 4.47-9.06.46729163-.21118959 1.0186013-.03468119 1.2763444.40863697.2577431.44331817.1383777 1.00975392-.2763444 1.31136303-.13.14-4.34 2.71-3.47 6.94.05870193.2657496.00655378.5439454-.14441106.7703926-.15096484.2264473-.38770398.3815824-.65558894.4296074z" fill="#f5f5f5"/><circle id="Oval" cx="13" cy="7" fill="#f5f5f5" r="1"/><path id="Shape" d="m37 22c-1.4215418-1.8823819-3.6411694-2.9921957-6-3-3.55 0-6 3-6 6.52 0 4.28 3.74 8.54 11.62 13.38.2366912.1298616.5233088.1298616.76 0 7.88-4.84 11.62-9.1 11.62-13.38 0-3.52-2.45-6.52-6-6.52-2.3588306.0078043-4.5784582 1.1176181-6 3z" fill="#ef314c"/><g fill="#000"><path id="Shape" d="m1.63 32.76c-.1834189.6052946-.06971826 1.261678.30660661 1.7700122.37632487.5083341.97092019.8087064 1.60339339.8099878.24657834-.0018822.49068264-.049347.72-.14l8.11-3.12c.8570494.3312654 1.73171.6150293 2.62.85 2.87 6.98 11.65 12.07 22.01 12.07 3.6309672.015839 7.2340016-.6349442 10.63-1.92l8.11 3.12c.2293174.090653.4734217.1381178.72.14.6324732-.0012814 1.2270685-.3016537 1.6033934-.8099878.3763249-.5083342.4900255-1.1647176.3066066-1.7700122l-2-6.59c2.2877681-2.5117229 3.5787412-5.7729414 3.63-9.17 0-7.3-6.25-13.53-15-15.94-2.91-7.12-11.85-12.06-22-12.06-12.68 0-23 7.63-23 17 .04302292 3.3931204 1.32313535 6.6538512 3.6 9.17zm56.37-4.76c-.0575555 3.0879857-1.2957043 6.0366406-3.46 8.24-.2513664.2676622-.3358231.6515561-.22 1l2.14 7.12-8.46-3.28c-.1140861-.0472572-.2365182-.0710635-.36-.07-.1267923-.001862-.2526507.021949-.37.07-3.2699394 1.2877841-6.7556703 1.9394495-10.27 1.92-11.58 0-21-6.73-21-15s9.42-15 21-15 21 6.73 21 15zm-56-11c0-8.27 9.42-15 21-15 8.7 0 16.38 3.83 19.52 9.5-1.8207374-.3358555-3.6685484-.5032297-5.52-.5-12.68 0-23 7.63-23 17 .002007.8873031.0958402 1.7720161.28 2.64-.52-.17-1-.35-1.54-.56-.2346393-.09199-.4953607-.09199-.73 0l-8.47 3.25 2.14-7.12c.11582309-.3484439.03136643-.7323378-.22-1-2.15724839-2.1958685-3.39483336-5.1324502-3.46-8.21z"/><path id="Shape" d="m31 18c-3.93 0-7 3.3-7 7.52 0 4.65 3.85 9.17 12.1 14.23.2711954.1647577.5826825.2512819.9.25.3174582.0023367.6292281-.084266.9-.25 8.25-5.06 12.1-9.58 12.1-14.23 0-4.22-3.07-7.52-7-7.52-2.2502299-.0041864-4.4094131.8882759-6 2.48-1.5905869-1.5917241-3.7497701-2.4841864-6-2.48zm6.83 4.56c1.2295035-1.6132579 3.1416312-2.5600754 5.17-2.56 2.85 0 5 2.37 5 5.52 0 3.86-3.5 7.81-11 12.43-7.5-4.62-11-8.57-11-12.43 0-3.15 2.15-5.52 5-5.52 2.0290935-.003178 3.9425246.944285 5.17 2.56.1862704.2755788.4973739.4405011.83.44.3326261.0005011.6437296-.1644212.83-.44z"/></g></g></g></svg>