<svg height="511pt" viewBox="-65 1 511 511.999" width="511pt" xmlns="http://www.w3.org/2000/svg"><path d="m190.5 10c-99.410156 0-180 80.589844-180 180 0 39.109375 12.46875 75.308594 33.660156 104.828125l.007813.023437h292.660156l.011719-.023437c21.191406-29.519531 33.660156-65.71875 33.660156-104.828125 0-99.410156-80.589844-180-180-180zm0 0" fill="#da90f8"/><path d="m320.5 350 30 152h-320l30-152zm0 0" fill="#4a696f"/><g fill="#ffe470"><path d="m350.5 320c0 16.558594-13.441406 30-30 30h-260c-16.570312 0-30-13.429688-30-30 0-16.644531 13.535156-30 30-30h260c16.445312 0 30 13.335938 30 30zm0 0"/><path d="m311.070312 208.359375-26.660156 13.332031-13.339844 26.667969-13.332031-26.667969-26.667969-13.332031 26.667969-13.328125 13.332031-26.671875 13.339844 26.671875zm0 0"/><path d="m191 169.289062-35.511719 11.839844c-5.96875 1.992188-10.660156 6.671875-12.648437 12.652344l-11.839844 35.507812-11.839844-35.507812c-1.992187-5.980469-6.671875-10.660156-12.652344-12.652344l-35.507812-11.839844 35.507812-11.839843c5.980469-1.988281 10.660157-6.679688 12.652344-12.648438l11.839844-35.511719 11.839844 35.511719c1.988281 5.96875 6.679687 10.660157 12.648437 12.648438zm0 0"/></g><path d="m290.5 140c5.519531 0 10-4.480469 10-10s-4.480469-10-10-10-10 4.480469-10 10 4.480469 10 10 10zm0 0"/><path d="m230.5 140c5.519531 0 10-4.480469 10-10s-4.480469-10-10-10-10 4.480469-10 10 4.480469 10 10 10zm0 0"/><path d="m190.5 80c5.519531 0 10-4.480469 10-10s-4.480469-10-10-10-10 4.480469-10 10 4.480469 10 10 10zm0 0"/><path d="m190.5 240c-5.519531 0-10 4.480469-10 10s4.480469 10 10 10 10-4.480469 10-10-4.480469-10-10-10zm0 0"/><path d="m190.5 452c-5.519531 0-10 4.480469-10 10s4.480469 10 10 10 10-4.480469 10-10-4.480469-10-10-10zm0 0"/><path d="m70.5 240c5.519531 0 10-4.480469 10-10s-4.480469-10-10-10-10 4.480469-10 10 4.480469 10 10 10zm0 0"/><path d="m190.5 0c-104.765625 0-190 85.234375-190 190 0 36.941406 10.484375 72.394531 30.394531 103.109375-6.71875 7.378906-10.394531 16.851563-10.394531 26.890625 0 17.945312 11.878906 33.164062 28.183594 38.21875l-27.996094 141.84375c-.578125 2.933594.1875 5.976562 2.085938 8.285156 1.898437 2.3125 4.734374 3.652344 7.726562 3.652344h320c2.992188 0 5.824219-1.339844 7.726562-3.652344 1.898438-2.308594 2.664063-5.351562 2.082032-8.285156l-27.992188-141.832031c16.027344-4.9375 28.183594-19.953125 28.183594-38.230469 0-10.121094-3.777344-19.644531-10.390625-26.898438 19.90625-30.710937 30.390625-66.164062 30.390625-103.101562 0-104.765625-85.234375-190-190-190zm0 20c93.738281 0 170 76.261719 170 170 0 33.019531-9.359375 64.699219-27.125 92.152344-4.117188-1.402344-8.457031-2.152344-12.875-2.152344h-260c-4.425781 0-8.765625.75-12.878906 2.148438-17.765625-27.449219-27.121094-59.132813-27.121094-92.148438 0-93.738281 76.261719-170 170-170zm-147.832031 472 3.945312-20h103.886719c5.523438 0 10-4.476562 10-10s-4.476562-10-10-10h-99.941406l18.160156-92h243.5625l18.15625 92h-99.9375c-5.523438 0-10 4.476562-10 10s4.476562 10 10 10h103.886719l3.945312 20zm277.832031-152h-260c-11.027344 0-20-8.972656-20-20 0-11.28125 9.210938-20 20-20h260c10.820312 0 20 8.75 20 20 0 11.046875-8.953125 20-20 20zm0 0"/><path d="m67.835938 178.777344 35.515624 11.839844c2.96875.988281 5.332032 3.351562 6.320313 6.324218l11.839844 35.511719c1.363281 4.082031 5.183593 6.835937 9.488281 6.835937s8.125-2.753906 9.488281-6.835937l11.839844-35.511719v-.003906c.988281-2.96875 3.351563-5.332031 6.324219-6.320312l35.511718-11.839844c4.082032-1.363282 6.835938-5.183594 6.835938-9.488282 0-4.300781-2.753906-8.125-6.835938-9.484374l-35.511718-11.839844c-2.972656-.992188-5.335938-3.355469-6.324219-6.328125l-11.839844-35.507813c-1.363281-4.085937-5.183593-6.839844-9.488281-6.839844s-8.125 2.753907-9.488281 6.839844l-11.839844 35.507813c-.992187 2.972656-3.351563 5.339843-6.328125 6.328125l-35.507812 11.839844c-4.082032 1.359374-6.835938 5.183593-6.835938 9.484374 0 4.304688 2.753906 8.125 6.835938 9.488282zm41.832031-11.839844c8.910156-2.964844 16.003906-10.058594 18.976562-18.976562l2.355469-7.058594 2.351562 7.058594c2.972657 8.910156 10.066407 16.003906 18.976563 18.976562l7.054687 2.351562-7.054687 2.355469c-8.917969 2.972657-16.011719 10.066407-18.976563 18.976563l-2.351562 7.054687-2.351562-7.054687c-2.96875-8.917969-10.066407-16.011719-18.976563-18.976563l-7.058594-2.355469zm0 0"/><path d="m221.070312 208.359375c0 3.789063 2.140626 7.25 5.527344 8.945313l23.6875 11.839843 11.839844 23.6875c1.691406 3.386719 5.15625 5.527344 8.941406 5.527344h.003906c3.785157 0 7.25-2.140625 8.941407-5.523437l11.851562-23.691407 23.675781-11.839843c3.390626-1.695313 5.53125-5.15625 5.53125-8.945313 0-3.785156-2.140624-7.25-5.53125-8.941406l-23.675781-11.839844-11.851562-23.691406c-1.695313-3.386719-5.15625-5.527344-8.945313-5.523438-3.789062 0-7.25 2.140625-8.941406 5.527344l-11.839844 23.6875-23.6875 11.839844c-3.386718 1.691406-5.527344 5.152343-5.527344 8.941406zm41.140626-4.382813c1.9375-.96875 3.503906-2.539062 4.472656-4.476562l4.390625-8.777344 4.390625 8.78125c.96875 1.933594 2.539062 3.503906 4.472656 4.472656l8.769531 4.382813-8.769531 4.386719c-1.933594.96875-3.503906 2.535156-4.472656 4.472656l-4.390625 8.78125-4.390625-8.78125c-.96875-1.9375-2.535156-3.503906-4.472656-4.472656l-8.773438-4.386719zm0 0"/></svg>