<svg id="Layer_1" height="512" viewBox="0 0 128 128" width="512" xmlns="http://www.w3.org/2000/svg" data-name="Layer 1"><circle cx="64" cy="57.302" fill="#229a32" r="32.333"/><path d="m31.667 57.3a32.206 32.206 0 0 0 8.2 21.508 32.329 32.329 0 0 0 38.549-50.447 32.332 32.332 0 0 0 -46.749 28.939z" fill="#38ca46"/><path d="m30 99.5h68v16h-68z" fill="#6740aa"/><path d="m87.178 85.275a35.939 35.939 0 0 0 3.529-3.339 4.074 4.074 0 0 0 .376-5.16 4 4 0 0 0 -6.184-.342 28.334 28.334 0 0 1 -41.646.163 4.163 4.163 0 0 0 -5.608-.578 4 4 0 0 0 -.441 5.819 35.943 35.943 0 0 0 3.555 3.384 3.244 3.244 0 0 1 -2.013 5.778 3.239 3.239 0 0 0 -3.246 3.239v5.261h57v-5.261a3.239 3.239 0 0 0 -3.243-3.239h-.015a3.233 3.233 0 0 1 -2.064-5.725z" fill="#0d5276"/><g fill="#fff"><path d="m39.331 59.052a1.75 1.75 0 0 1 -1.75-1.75 26.483 26.483 0 0 1 8.625-19.527 1.75 1.75 0 1 1 2.357 2.586 22.979 22.979 0 0 0 -7.482 16.939 1.75 1.75 0 0 1 -1.75 1.752z"/><path d="m54.231 36.394a1.75 1.75 0 0 1 -.694-3.357 26.238 26.238 0 0 1 10.463-2.154 1.75 1.75 0 0 1 0 3.5 22.766 22.766 0 0 0 -9.076 1.867 1.74 1.74 0 0 1 -.693.144z"/><path d="m56.677 66.852a1.75 1.75 0 0 0 1.75-1.75v-2.451a1.75 1.75 0 0 0 -3.5 0v2.449a1.75 1.75 0 0 0 1.75 1.752z"/><path d="m61.875 66.1h-2.451a1.75 1.75 0 1 0 0 3.5h2.451a1.75 1.75 0 0 0 0-3.5z"/><path d="m56.677 68.846a1.75 1.75 0 0 0 -1.75 1.75v2.451a1.75 1.75 0 0 0 3.5 0v-2.447a1.75 1.75 0 0 0 -1.75-1.754z"/><path d="m55.68 67.849a1.75 1.75 0 0 0 -1.75-1.75h-2.45a1.75 1.75 0 0 0 0 3.5h2.45a1.75 1.75 0 0 0 1.75-1.75z"/><path d="m75 46.125a1.75 1.75 0 0 0 1.75-1.75v-2.451a1.75 1.75 0 0 0 -3.5 0v2.451a1.75 1.75 0 0 0 1.75 1.75z"/><path d="m80.2 45.372h-2.453a1.75 1.75 0 0 0 0 3.5h2.453a1.75 1.75 0 0 0 0-3.5z"/><path d="m75 48.119a1.75 1.75 0 0 0 -1.75 1.75v2.451a1.75 1.75 0 0 0 3.5 0v-2.451a1.75 1.75 0 0 0 -1.75-1.75z"/><path d="m74 47.122a1.75 1.75 0 0 0 -1.75-1.75h-2.45a1.75 1.75 0 0 0 0 3.5h2.451a1.75 1.75 0 0 0 1.749-1.75z"/></g><path d="m64 10.75a1.75 1.75 0 0 0 -1.75 1.75v5.5a1.75 1.75 0 0 0 3.5 0v-5.5a1.75 1.75 0 0 0 -1.75-1.75z" fill="#38ca46"/><path d="m94.442 24.385-3.889 3.889a1.75 1.75 0 1 0 2.475 2.475l3.889-3.889a1.75 1.75 0 0 0 -2.475-2.475z" fill="#38ca46"/><path d="m108.8 55.552h-5.5a1.75 1.75 0 1 0 0 3.5h5.5a1.75 1.75 0 0 0 0-3.5z" fill="#38ca46"/><path d="m24.7 55.552h-5.5a1.75 1.75 0 0 0 0 3.5h5.5a1.75 1.75 0 1 0 0-3.5z" fill="#38ca46"/><path d="m33.558 24.385a1.75 1.75 0 0 0 -2.475 2.475l3.889 3.889a1.75 1.75 0 1 0 2.475-2.475z" fill="#38ca46"/><path d="m50.508 82.2h-.007l.131.063z" fill="#112d34"/><path d="m92.5 94.239a3.239 3.239 0 0 0 -3.243-3.239h-.015a3.233 3.233 0 0 1 -2.064-5.725 35.956 35.956 0 0 0 3.529-3.339 4.074 4.074 0 0 0 .376-5.16 4 4 0 0 0 -6.184-.342 28.285 28.285 0 0 1 -33.172 6.389c3.92 2.061 15.94 9 15.94 16.677h24.833z" fill="#112d34"/><path d="m98 115.5v-16h-30.333v16z" fill="#3b237d"/><path d="m115.5 117.25h-103a1.75 1.75 0 0 1 0-3.5h103a1.75 1.75 0 0 1 0 3.5z" fill="#112d34"/></svg>