<svg height="512pt" viewBox="0 0 512 511" width="512pt" xmlns="http://www.w3.org/2000/svg"><path d="m503.464844 431.082031c0 40.019531-110.761719 72.53125-247.464844 72.53125s-247.464844-32.511719-247.464844-72.53125c.042969-4.558593 1.40625-9.003906 3.921875-12.800781 20.652344 33.960938 121.773438 59.734375 243.542969 59.734375s222.890625-25.773437 243.542969-59.734375c2.476562 3.816406 3.835937 8.25 3.921875 12.800781zm0 0" fill="#6a1b9a"/><path d="m499.542969 418.28125c-20.652344 33.960938-121.773438 59.734375-243.542969 59.734375s-222.890625-25.773437-243.542969-59.734375c11.523438-18.945312 48.128907-35.414062 99.5-46.164062 1.195313-.257813 2.390625-.511719 3.667969-.769532l-1.109375 5.207032c10.753906 13.992187 45.144531 25.511718 90.285156 30.460937 17.003907 1.859375 34.09375 2.769531 51.199219 2.730469 17.105469.039062 34.195312-.871094 51.199219-2.730469 43.433593-4.777344 76.972656-15.613281 89.003906-28.925781l-2.390625-7.253906c2.132812.425781 4.183594.851562 6.230469 1.28125 51.371093 10.835937 88.0625 27.21875 99.5 46.164062zm0 0" fill="#9d27b0"/><path d="m429.824219 188.648438-75.007813-18.6875c-6.070312-1.527344-12.484375.398437-16.710937 5.011718-4.222657 4.617188-5.574219 11.179688-3.511719 17.089844l47.957031 144.640625c-23.824219 10.660156-49.320312 17.101563-75.351562 19.027344-16.996094 1.933593-34.09375 2.871093-51.199219 2.816406-17.105469.042969-34.199219-.867187-51.199219-2.730469-35.839843-4.011718-64.855469-12.03125-80.726562-22.1875l32.683593-147.285156c3.558594-15.925781 9.484376-31.226562 17.578126-45.394531l70.828124-123.734375c2.671876-4.34375 7.140626-7.269532 12.191407-7.980469 5.050781-.707031 10.152343.871094 13.917969 4.3125l166.570312 160.679687c2.796875 2.6875 3.429688 6.914063 1.546875 10.300782-1.882813 3.386718-5.8125 5.078125-9.566406 4.121094zm0 0" fill="#6a1b9a"/><path d="m429.824219 188.648438-75.007813-18.6875c-6.070312-1.527344-12.484375.398437-16.710937 5.011718-4.222657 4.617188-5.574219 11.179688-3.511719 17.089844l47.957031 144.640625c-23.824219 10.660156-49.320312 17.101563-75.351562 19.027344-6.144531.683593-12.457031 1.28125-18.941407 1.707031-2.648437.257812-5.292968.34375-8.023437.511719l-53.246094-94.632813c-8.28125-14.742187-7.078125-32.984375 3.070313-46.507812l24.832031-33.195313c6.207031-8.242187 9.210937-18.464843 8.449219-28.757812l-10.839844-144.125c.09375-.089844.214844-.152344.34375-.171875 6.1875-2.773438 13.433594-1.597656 18.429688 2.988281l166.570312 160.679687c2.796875 2.6875 3.429688 6.914063 1.546875 10.300782-1.882813 3.386718-5.8125 5.078125-9.566406 4.121094zm0 0" fill="#9d27b0"/><path d="m429.824219 188.648438-75.007813-18.6875c-6.070312-1.527344-12.484375.398437-16.710937 5.011718-4.222657 4.617188-5.574219 11.179688-3.511719 17.089844l49.40625 149.417969-17.066406 8.535156-66.125-181.847656c-2.265625-5.882813-3.140625-12.210938-2.558594-18.492188 1.21875-10.996093 7.882812-23.660156 34.550781-12.996093 31.402344 12.546874 81.238281 29.699218 105.386719 37.890624 2.578125 2.773438 3.023438 6.914063 1.089844 10.167969-1.933594 3.257813-5.785156 4.851563-9.453125 3.910157zm0 0" fill="#6a1b9a"/><path d="m401.066406 392.679688c0 18.261718-38.996094 33.878906-93.867187 39.9375v-76.886719c26.03125-1.925781 51.527343-8.367188 75.351562-19.027344l11.261719 34.132813zm0 0" fill="#ffb301"/><path d="m204.800781 355.816406v76.800782c-54.871093-6.058594-93.867187-21.675782-93.867187-39.9375l4.691406-21.332032h.085938l8.363281-37.71875c15.871093 10.15625 44.886719 18.175782 80.726562 22.1875zm0 0" fill="#ffb301"/><path d="m307.199219 355.730469v76.886719c-17.003907 1.859374-34.09375 2.769531-51.199219 2.730468v-76.800781c17.105469.054687 34.203125-.882813 51.199219-2.816406zm0 0" fill="#ffeb3a"/><path d="m256 358.546875v76.800781c-17.105469.039063-34.195312-.871094-51.199219-2.730468v-76.800782c17 1.863282 34.09375 2.773438 51.199219 2.730469zm0 0" fill="#ffeb3a"/><path d="m273.066406 409.746094h-34.132812c-4.714844 0-8.535156-3.820313-8.535156-8.53125 0-4.714844 3.820312-8.535156 8.535156-8.535156h34.132812c4.714844 0 8.535156 3.820312 8.535156 8.535156 0 4.710937-3.820312 8.53125-8.535156 8.53125zm0 0" fill="#f29c1f"/><path d="m400.375 363.480469-57.734375-174.207031c-1.039063-2.964844-.363281-6.257813 1.753906-8.574219 2.117188-2.320313 5.335938-3.285157 8.382813-2.519531l75 18.773437c7.488281 1.847656 15.285156-1.558594 19.019531-8.304687 3.734375-6.75 2.480469-15.167969-3.0625-20.53125l-166.683594-160.878907c-5.625-5.195312-13.292969-7.574219-20.871093-6.476562-7.65625 1.082031-14.414063 5.558593-18.398438 12.1875l-70.835938 123.730469c-8.519531 14.914062-14.746093 31.023437-18.464843 47.789062l-39.945313 179.652344c-42.914062 9.164062-108.535156 29.3125-108.535156 66.960937 0 52.648438 131.898438 81.066407 256 81.066407s256-28.417969 256-81.066407c0-38.246093-67.746094-58.496093-111.625-67.601562zm-135.839844 63.199219v-16.933594h8.53125c4.714844 0 8.535156-3.820313 8.535156-8.53125 0-4.714844-3.820312-8.535156-8.535156-8.535156h-8.53125v-25.683594c11.75-.1875 23.175782-.792969 34.132813-1.75v59.734375c-10.515625.914062-21.914063 1.5-34.132813 1.699219zm-51.203125-1.707032v-59.734375c10.957031.972657 22.402344 1.542969 34.132813 1.707031v25.734376h-8.53125c-4.714844 0-8.535156 3.820312-8.535156 8.535156 0 4.710937 3.820312 8.53125 8.535156 8.53125h8.53125v16.933594c-12.21875-.199219-23.617188-.785157-34.132813-1.734376zm-93.753906-31.832031 10.367187-46.667969c21.171876 8.8125 43.511719 14.503906 66.320313 16.898438v59.730468c-49.773437-6.765624-75.84375-21.035156-76.6875-29.960937zm196.15625-29.738281c21.113281-2.324219 41.847656-7.347656 61.6875-14.941406l14.921875 45.074218c-1.457031 8.949219-27.457031 22.929688-76.609375 29.574219zm-150.605469-175.238282c3.339844-15.09375 8.953125-29.589843 16.640625-43l70.707031-123.503906c1.320313-2.179687 3.558594-3.648437 6.082032-3.992187 2.460937-.386719 4.96875.347656 6.828125 2.003906l166.519531 160.726563-75-18.773438c-9.09375-2.269531-18.703125.609375-25.046875 7.511719-6.34375 6.898437-8.40625 16.714843-5.382813 25.589843l45.578126 137.488282c-20.824219 7.96875-42.648438 13.015625-64.855469 14.992187h-.09375c-16.96875 1.886719-34.03125 2.824219-51.105469 2.808594-51.140625 0-97.945312-8.023437-122.25-20.675781zm90.871094 306.917969c-140.800781 0-238.933594-33.734375-238.933594-64 0-13.492187 23.203125-33.792969 87.382813-48.582031l-1.851563 8.328125c-.019531.316406-.019531.632813 0 .949219-.085937.296875-.152344.597656-.199218.902344 0 .351562.128906.667968.148437 1.015624.015625.351563.058594.582032.125.855469 2.21875 24.832031 47.199219 40.566407 101.90625 46.546875.078125 0 .144531.042969.222656.042969h.066407c16.984374 1.828125 34.050781 2.742187 51.132812 2.742187s34.148438-.917968 51.132812-2.75h.066407c.078125 0 .144531-.042968.222656-.042968 55.195313-6.03125 100.539063-21.980469 102-47.195313.054687-.285156.097656-.566406.117187-.855469 0-.136718.0625-.265624.0625-.402343-.054687-.453125-.144531-.898438-.273437-1.339844-.011719-.449219-.066406-.898437-.164063-1.335937l-2.558593-7.683594c64.835937 14.839844 88.328125 35.203125 88.328125 48.804687 0 30.265625-98.132813 64-238.933594 64zm0 0"/></svg>